<svg width="83" height="83" viewBox="0 0 83 83" fill="none" xmlns="http://www.w3.org/2000/svg">
<rect x="2.45996" y="1.94092" width="79" height="79" rx="14.5" fill="white" stroke="#FE7140" stroke-width="3"/>
<path d="M62.4545 28.7997C62.4545 35.0313 59.7378 39.5586 59.6235 39.7474C59.3934 40.1235 58.9951 40.3298 58.5841 40.3298C58.3683 40.3298 58.1509 40.2727 57.9542 40.1537C57.3797 39.8045 57.1957 39.0571 57.5432 38.4827C57.5686 38.4414 60.0203 34.3204 60.0203 28.7997C60.0203 25.6514 57.9732 23.3664 55.1518 23.3664C52.4668 23.3664 50.2833 25.5499 50.2833 28.2364C50.2833 29.3805 50.8371 32.2876 51.0498 33.3112C51.1878 33.9697 50.7641 34.614 50.1056 34.752C49.4471 34.8869 48.8028 34.4664 48.6663 33.8094C48.5822 33.4079 47.8459 29.8391 47.8459 28.2364C47.8459 24.209 51.1228 20.9321 55.1518 20.9321C59.3141 20.9321 62.4545 24.3137 62.4545 28.7997ZM55.3581 30.7151C55.8421 34.7599 56.5435 42.6418 55.7373 43.4448L38.0503 61.1334C36.9633 62.222 35.1971 62.222 34.1086 61.1318L22.2818 49.3066C21.1932 48.2196 21.1932 46.4534 22.2818 45.3649L39.9704 27.6778C40.2513 27.397 43.3107 27.3843 46.751 27.5636C46.732 27.7905 46.6828 28.0047 46.6828 28.2364C46.6828 29.1187 46.878 30.4866 47.0827 31.6894C46.7224 32.2242 46.5114 32.8668 46.5114 33.5603C46.5114 35.4074 48.0094 36.9054 49.8565 36.9054C51.7036 36.9054 53.2016 35.4074 53.2016 33.5603C53.2016 32.4225 52.6319 31.4196 51.7639 30.8166C51.5861 29.7582 51.4433 28.7363 51.4433 28.2364C51.4433 28.1285 51.4655 28.0285 51.4751 27.9222C51.8987 27.9666 52.3161 28.0127 52.7112 28.0618C55.0486 28.3491 55.0725 28.3443 55.3581 30.7151ZM45.9306 43.9526C45.6561 43.1893 45.1991 42.2737 44.2073 41.22L45.5498 39.876L44.0549 38.3827L42.6061 39.8331C40.667 38.5049 38.6676 38.6128 37.3108 39.9696C35.8319 41.4485 36.181 43.3258 37.2664 45.5077C38.0122 47.0184 38.1487 47.888 37.5695 48.4672C36.9744 49.0622 36.0144 48.8036 35.1432 47.934C34.153 46.9438 33.5722 45.7203 33.2834 44.7285L31.0396 46.0583C31.2998 46.9565 32.0012 48.2371 32.9914 49.2907L31.5283 50.7554L33.0216 52.2502L34.5941 50.6792C36.6682 52.1423 38.7596 51.9455 40.1164 50.5888C41.5049 49.1971 41.6271 47.642 40.4369 45.1713C39.6118 43.4003 39.4134 42.5308 39.9022 42.0436C40.3306 41.6151 41.0923 41.493 42.0841 42.4847C43.1838 43.5844 43.5487 44.6524 43.7471 45.2173L45.9306 43.9526Z" fill="url(#paint0_linear_4_8216)"/>
<defs>
<linearGradient id="paint0_linear_4_8216" x1="21.3954" y1="31.3726" x2="72.4216" y2="33.2875" gradientUnits="userSpaceOnUse">
<stop stop-color="#FD4B0D"/>
<stop offset="1" stop-color="#FF855A"/>
</linearGradient>
</defs>
</svg>
