<svg width="83" height="83" viewBox="0 0 83 83" fill="none" xmlns="http://www.w3.org/2000/svg">
<rect x="2.12891" y="1.94092" width="79" height="79" rx="14.5" fill="white" stroke="#FE7140" stroke-width="3"/>
<path fill-rule="evenodd" clip-rule="evenodd" d="M31.5944 35.4661C31.5944 26.6397 38.7755 19.4585 47.6028 19.4585C56.4301 19.4585 63.6113 26.6397 63.6113 35.4661C63.6113 44.2943 56.4301 51.4755 47.6028 51.4755C43.7594 51.4755 40.1237 50.1196 37.2308 47.6603L34.7045 50.1874L35.6147 51.0977C36.1179 51.6008 36.1179 52.4166 35.6147 52.9189L25.4882 63.0463C24.985 63.5495 24.1702 63.5486 23.667 63.0463L20.0236 59.4029C19.5204 58.8997 19.5212 58.0839 20.0236 57.5816L30.1509 47.4542C30.6532 46.9519 31.469 46.9519 31.9722 47.4542L32.8832 48.3662L35.4095 45.8391C32.9562 42.953 31.5944 39.3199 31.5944 35.4661ZM60.2305 35.4852C60.2305 42.4783 54.5615 48.1474 47.5684 48.1474C40.5753 48.1474 34.9062 42.4783 34.9062 35.4852C34.9062 28.4921 40.5753 22.8231 47.5684 22.8231C54.5615 22.8231 60.2305 28.4921 60.2305 35.4852ZM47.1116 27.6954C47.2949 27.3113 47.8418 27.3113 48.0251 27.6954L50.0901 32.0229C50.1639 32.1775 50.3108 32.2843 50.4807 32.3067L55.2344 32.9333C55.6565 32.9889 55.8255 33.509 55.5167 33.8021L52.0392 37.1032C51.9149 37.2212 51.8588 37.394 51.89 37.5624L52.763 42.2771C52.8405 42.6957 52.3981 43.0171 52.024 42.8141L47.8098 40.5269C47.6592 40.4451 47.4775 40.4451 47.327 40.5269L43.1128 42.8141C42.7386 43.0171 42.2962 42.6957 42.3737 42.2771L43.2468 37.5624C43.278 37.394 43.2218 37.2212 43.0976 37.1032L39.62 33.8021C39.3113 33.509 39.4803 32.9889 39.9023 32.9333L44.6561 32.3067C44.8259 32.2843 44.9729 32.1775 45.0467 32.0229L47.1116 27.6954Z" fill="url(#paint0_linear_12_5)"/>
<defs>
<linearGradient id="paint0_linear_12_5" x1="19.5714" y1="30.6492" x2="74.3019" y2="32.7045" gradientUnits="userSpaceOnUse">
<stop stop-color="#FD4B0D"/>
<stop offset="1" stop-color="#FF855A"/>
</linearGradient>
</defs>
</svg>
