<svg width="44" height="45" viewBox="0 0 44 45" fill="none" xmlns="http://www.w3.org/2000/svg">
<path d="M40.7884 14.4036C39.8683 13.4613 38.4056 13.4021 37.4164 14.2269C37.2734 14.3462 37.3841 14.2411 35.2062 16.4697L40.8597 22.2547L42.8915 20.2016C43.8739 19.1964 43.8739 17.5608 42.8915 16.5555L40.7884 14.4036Z" fill="url(#paint0_linear_4_8227)"/>
<path d="M23.6126 28.4424L20.287 35.7345C20.063 36.2258 20.1632 36.8079 20.5378 37.1912C20.9124 37.5745 21.4815 37.677 21.9613 37.4478L29.0877 34.0448C29.3697 33.9101 28.5162 34.7275 39.0669 24.0662L33.4246 18.2926C22.9637 28.9969 23.7468 28.1482 23.6126 28.4424Z" fill="url(#paint1_linear_4_8227)"/>
<path d="M31.2111 35.6288C30.9025 35.9405 30.547 36.1935 30.1542 36.3811L23.0278 39.7842C21.6264 40.4534 19.9144 40.1986 18.7573 39.0144C17.6377 37.8688 17.3353 36.1127 18.0048 34.6443L21.3305 27.352C21.5173 26.9425 21.7704 26.5728 22.0828 26.2531L32.7964 15.2904V4.36719C32.7964 2.23482 31.101 0.5 29.0171 0.5H4.40967C2.32576 0.5 0.630371 2.23482 0.630371 4.36719V40.6328C0.630371 42.7652 2.32576 44.5 4.40967 44.5H29.0171C31.101 44.5 32.7964 42.7652 32.7964 40.6328V34.0267L31.2111 35.6288ZM7.34921 8.83594H26.1617C26.8574 8.83594 27.4215 9.41309 27.4215 10.125C27.4215 10.8369 26.8574 11.4141 26.1617 11.4141H7.34921C6.65348 11.4141 6.08944 10.8369 6.08944 10.125C6.08944 9.41309 6.65348 8.83594 7.34921 8.83594ZM7.34921 15.7109H22.1305C22.8262 15.7109 23.3902 16.2881 23.3902 17C23.3902 17.7119 22.8262 18.2891 22.1305 18.2891H7.34921C6.65348 18.2891 6.08944 17.7119 6.08944 17C6.08944 16.2881 6.65348 15.7109 7.34921 15.7109ZM6.08944 23.875C6.08944 23.1631 6.65348 22.5859 7.34921 22.5859H18.0992C18.7949 22.5859 19.359 23.1631 19.359 23.875C19.359 24.5869 18.7949 25.1641 18.0992 25.1641H7.34921C6.65348 25.1641 6.08944 24.5869 6.08944 23.875Z" fill="url(#paint2_linear_4_8227)"/>
<defs>
<linearGradient id="paint0_linear_4_8227" x1="35.1918" y1="15.84" x2="45.6768" y2="16.2253" gradientUnits="userSpaceOnUse">
<stop stop-color="#474FA0"/>
<stop offset="1" stop-color="#868DD9"/>
</linearGradient>
<linearGradient id="paint1_linear_4_8227" x1="20.1366" y1="23.1991" x2="43.6635" y2="24.0653" gradientUnits="userSpaceOnUse">
<stop stop-color="#474FA0"/>
<stop offset="1" stop-color="#868DD9"/>
</linearGradient>
<linearGradient id="paint2_linear_4_8227" x1="0.575469" y1="11.6996" x2="40.6442" y2="12.7996" gradientUnits="userSpaceOnUse">
<stop stop-color="#474FA0"/>
<stop offset="1" stop-color="#868DD9"/>
</linearGradient>
</defs>
</svg>
