<svg width="49" height="48" viewBox="0 0 49 48" fill="none" xmlns="http://www.w3.org/2000/svg">
<path d="M35.8295 0.000488281V12.7999H48.6289L35.8295 0.000488281Z" fill="url(#paint0_linear_4_8244)"/>
<path d="M16.5856 46.0116L14.1345 36.1785C15.664 34.7225 16.6304 32.6746 16.6304 30.3995C16.6304 25.9901 13.0401 22.3999 8.63072 22.3999C4.22133 22.3999 0.631091 25.9901 0.631091 30.3995C0.631091 32.6746 1.59745 34.7225 3.12698 36.1785L0.675888 46.0116C0.525495 46.6164 0.743085 47.2564 1.22946 47.6499C1.71584 48.0403 2.38781 48.1075 2.94458 47.8323L8.63072 44.9877L14.3137 47.8323C14.5409 47.9411 14.7872 47.9987 15.0304 47.9987C15.3856 47.9987 15.7408 47.8803 16.032 47.6499C16.5184 47.2564 16.736 46.6196 16.5856 46.0116ZM8.63072 35.1993C5.98445 35.1993 3.83094 33.0458 3.83094 30.3995C3.83094 27.7533 5.98445 25.5998 8.63072 25.5998C11.277 25.5998 13.4305 27.7533 13.4305 30.3995C13.4305 33.0458 11.277 35.1993 8.63072 35.1993Z" fill="url(#paint1_linear_4_8244)"/>
<path d="M35.8295 15.9997C34.0664 15.9997 32.6297 14.563 32.6297 12.7999V0.000488281H13.4306C11.6674 0.000488281 10.2307 1.43722 10.2307 3.20034V19.3628C15.6449 20.1468 19.8303 24.7705 19.8303 30.3991C19.8303 32.8182 19.0623 35.1157 17.6416 37.026L19.5807 44.7984H45.4291C47.1954 44.7984 48.629 43.3649 48.629 41.5986V15.9997H35.8295ZM18.2303 12.7999C17.3472 12.7999 16.6304 12.0831 16.6304 11.2C16.6304 10.3168 17.3472 9.60005 18.2303 9.60005H27.8299C28.7131 9.60005 29.4298 10.3168 29.4298 11.2C29.4298 12.0831 28.7131 12.7999 27.8299 12.7999H18.2303ZM40.6293 31.999H24.6301C23.7469 31.999 23.0301 31.2822 23.0301 30.3991C23.0301 29.5159 23.7469 28.7992 24.6301 28.7992H40.6293C41.5125 28.7992 42.2292 29.5159 42.2292 30.3991C42.2292 31.2822 41.5125 31.999 40.6293 31.999ZM40.6293 22.3995H21.4302C20.547 22.3995 19.8303 21.6827 19.8303 20.7995C19.8303 19.9164 20.547 19.1996 21.4302 19.1996H40.6293C41.5125 19.1996 42.2292 19.9164 42.2292 20.7995C42.2292 21.6827 41.5125 22.3995 40.6293 22.3995Z" fill="url(#paint2_linear_4_8244)"/>
<defs>
<linearGradient id="paint0_linear_4_8244" x1="35.8076" y1="3.25841" x2="51.7412" y2="3.85677" gradientUnits="userSpaceOnUse">
<stop stop-color="#474FA0"/>
<stop offset="1" stop-color="#868DD9"/>
</linearGradient>
<linearGradient id="paint1_linear_4_8244" x1="0.601591" y1="28.9159" x2="20.5411" y2="29.3841" gradientUnits="userSpaceOnUse">
<stop stop-color="#474FA0"/>
<stop offset="1" stop-color="#868DD9"/>
</linearGradient>
<linearGradient id="paint2_linear_4_8244" x1="10.1652" y1="11.4032" x2="57.9838" y2="12.9424" gradientUnits="userSpaceOnUse">
<stop stop-color="#474FA0"/>
<stop offset="1" stop-color="#868DD9"/>
</linearGradient>
</defs>
</svg>
