<svg width="55" height="40" viewBox="0 0 55 40" fill="none" xmlns="http://www.w3.org/2000/svg">
<path d="M17.0274 17.3575H4.2352C3.80496 17.3575 3.45605 17.7063 3.45605 18.1367V23.9538C3.45605 24.3841 3.80496 24.7331 4.2352 24.7331H17.0274C17.4577 24.7331 17.8066 24.3841 17.8066 23.9538V18.1367C17.8066 17.7063 17.4577 17.3575 17.0274 17.3575Z" fill="url(#paint0_linear_4_8264)"/>
<path d="M42.1631 19.5306H37.5496C37.3654 19.5306 37.2158 19.6802 37.2158 19.8646V24.478C37.2158 24.6624 37.3654 24.8119 37.5496 24.8119H42.1631C42.3474 24.8119 42.4968 24.6624 42.4968 24.478V19.8646C42.4968 19.6802 42.3474 19.5306 42.1631 19.5306Z" fill="url(#paint1_linear_4_8264)"/>
<path d="M34.7624 19.5306H30.1492C29.9644 19.5306 29.8152 19.6802 29.8152 19.8646V24.478C29.8152 24.6624 29.9644 24.8119 30.1492 24.8119H34.7624C34.9472 24.8119 35.0966 24.6624 35.0966 24.478V19.8646C35.0966 19.6802 34.9471 19.5306 34.7624 19.5306Z" fill="url(#paint2_linear_4_8264)"/>
<path d="M27.3617 19.5306H22.7486C22.564 19.5306 22.4146 19.6802 22.4146 19.8646V24.478C22.4146 24.6624 22.564 24.8119 22.7486 24.8119H27.3617C27.5461 24.8119 27.6955 24.6624 27.6955 24.478V19.8646C27.6956 19.6802 27.5461 19.5306 27.3617 19.5306Z" fill="url(#paint3_linear_4_8264)"/>
<path d="M34.7624 12.6107H30.1492C29.9644 12.6107 29.8152 12.7602 29.8152 12.9446V17.558C29.8152 17.7423 29.9644 17.8919 30.1492 17.8919H34.7624C34.9472 17.8919 35.0966 17.7423 35.0966 17.558V12.9446C35.0966 12.7602 34.9471 12.6107 34.7624 12.6107Z" fill="url(#paint4_linear_4_8264)"/>
<path d="M27.3617 12.6107H22.7486C22.564 12.6107 22.4146 12.7602 22.4146 12.9446V17.558C22.4146 17.7423 22.564 17.8919 22.7486 17.8919H27.3617C27.5461 17.8919 27.6955 17.7423 27.6955 17.558V12.9446C27.6956 12.7602 27.5461 12.6107 27.3617 12.6107Z" fill="url(#paint5_linear_4_8264)"/>
<path d="M12.7104 9.62051H8.5524C8.30654 9.62051 8.10718 9.81998 8.10718 10.0658V15.3396C8.10718 15.5854 8.30654 15.7849 8.5524 15.7849H12.7104C12.9564 15.7849 13.1556 15.5855 13.1556 15.3396V10.0658C13.1556 9.81998 12.9563 9.62051 12.7104 9.62051Z" fill="url(#paint6_linear_4_8264)"/>
<path d="M12.7104 5.98929H11.2992V1.15221C11.2992 0.783358 11.0001 0.484375 10.6313 0.484375C10.2623 0.484375 9.96334 0.783358 9.96334 1.15221V5.98929H8.5524C8.30654 5.98929 8.10718 6.18865 8.10718 6.43462V7.60279C8.10718 7.84854 8.30654 8.04801 8.5524 8.04801H12.7104C12.9564 8.04801 13.1556 7.84854 13.1556 7.60279V6.43462C13.1556 6.18865 12.9563 5.98929 12.7104 5.98929Z" fill="url(#paint7_linear_4_8264)"/>
<path d="M54.594 25.0726C54.545 24.9844 54.452 24.9297 54.351 24.9297H45.4762C45.3907 24.9297 45.3097 24.9692 45.257 25.0366L44.0803 26.5423H0.907275C0.814704 26.5423 0.728414 26.5883 0.676508 26.6651C0.624822 26.7418 0.614463 26.8394 0.649177 26.9251C0.649177 26.9251 4.41893 36.2381 5.67779 39.3416C5.72044 39.4466 5.82249 39.5153 5.93578 39.5153H45.6463C45.7428 39.5153 45.8409 39.4819 45.9014 39.3836C48.0657 35.8718 54.5874 25.3546 54.5874 25.3546C54.6405 25.2687 54.643 25.1608 54.594 25.0726ZM36.8664 32.0391C36.2632 32.0391 35.7738 31.5499 35.7738 30.9465C35.7738 30.3429 36.2632 29.8538 36.8664 29.8538C37.47 29.8538 37.9592 30.343 37.9592 30.9465C37.9592 31.5498 37.4701 32.0391 36.8664 32.0391ZM42.1631 32.0391C41.5594 32.0391 41.0703 31.5499 41.0703 30.9465C41.0703 30.3429 41.5594 29.8538 42.1631 29.8538C42.7663 29.8538 43.2554 30.343 43.2554 30.9465C43.2554 31.5498 42.7662 32.0391 42.1631 32.0391Z" fill="url(#paint8_linear_4_8264)"/>
<defs>
<linearGradient id="paint0_linear_4_8264" x1="3.43156" y1="19.2349" x2="21.2263" y2="20.5351" gradientUnits="userSpaceOnUse">
<stop stop-color="#474FA0"/>
<stop offset="1" stop-color="#868DD9"/>
</linearGradient>
<linearGradient id="paint1_linear_4_8264" x1="37.2068" y1="20.8749" x2="43.7809" y2="21.1218" gradientUnits="userSpaceOnUse">
<stop stop-color="#474FA0"/>
<stop offset="1" stop-color="#868DD9"/>
</linearGradient>
<linearGradient id="paint2_linear_4_8264" x1="29.8062" y1="20.8749" x2="36.3808" y2="21.1218" gradientUnits="userSpaceOnUse">
<stop stop-color="#474FA0"/>
<stop offset="1" stop-color="#868DD9"/>
</linearGradient>
<linearGradient id="paint3_linear_4_8264" x1="22.4055" y1="20.8749" x2="28.9797" y2="21.1218" gradientUnits="userSpaceOnUse">
<stop stop-color="#474FA0"/>
<stop offset="1" stop-color="#868DD9"/>
</linearGradient>
<linearGradient id="paint4_linear_4_8264" x1="29.8062" y1="13.9549" x2="36.3808" y2="14.2019" gradientUnits="userSpaceOnUse">
<stop stop-color="#474FA0"/>
<stop offset="1" stop-color="#868DD9"/>
</linearGradient>
<linearGradient id="paint5_linear_4_8264" x1="22.4055" y1="13.9549" x2="28.9797" y2="14.2018" gradientUnits="userSpaceOnUse">
<stop stop-color="#474FA0"/>
<stop offset="1" stop-color="#868DD9"/>
</linearGradient>
<linearGradient id="paint6_linear_4_8264" x1="8.09856" y1="11.1896" x2="14.3861" y2="11.383" gradientUnits="userSpaceOnUse">
<stop stop-color="#474FA0"/>
<stop offset="1" stop-color="#868DD9"/>
</linearGradient>
<linearGradient id="paint7_linear_4_8264" x1="8.09856" y1="2.4096" x2="14.3881" y2="2.56725" gradientUnits="userSpaceOnUse">
<stop stop-color="#474FA0"/>
<stop offset="1" stop-color="#868DD9"/>
</linearGradient>
<linearGradient id="paint8_linear_4_8264" x1="0.536738" y1="28.6423" x2="66.5781" y2="37.8243" gradientUnits="userSpaceOnUse">
<stop stop-color="#474FA0"/>
<stop offset="1" stop-color="#868DD9"/>
</linearGradient>
</defs>
</svg>
