<svg width="29" height="28" viewBox="0 0 29 28" fill="none" xmlns="http://www.w3.org/2000/svg">
<g clip-path="url(#clip0_4_8309)">
<path d="M28.6292 14.0259C28.6293 14.0173 28.6295 14.0086 28.6295 13.9999C28.6295 10.2604 27.1733 6.74473 24.5291 4.1005C21.8849 1.45626 18.3692 0 14.6297 0C10.8902 0 7.3745 1.45626 4.73026 4.1005C2.09248 6.73828 0.637198 10.2433 0.630089 13.9725V13.9743C0.630034 13.9828 0.629761 13.9913 0.629761 13.9999C0.629761 17.7394 2.08597 21.2551 4.73021 23.8993C7.37264 26.5418 10.8854 27.9978 14.622 27.9997C14.6247 27.9998 14.6274 28 14.6301 28C14.6315 28 14.633 27.9998 14.6344 27.9998C18.3721 27.9986 21.886 26.5425 24.5291 23.8993C27.1667 21.2617 28.622 17.7568 28.6292 14.0278C28.6292 14.0272 28.6292 14.0265 28.6292 14.0259ZM21.2352 24.4414L20.0318 23.6468C19.6537 23.3972 19.1449 23.5013 18.8953 23.8793C18.6456 24.2574 18.7498 24.7662 19.1278 25.0159L19.588 25.3198C18.2141 25.924 16.7103 26.2849 15.1309 26.3483L14.4845 25.0554C14.2819 24.6502 13.7891 24.486 13.3839 24.6886C12.9787 24.8912 12.8144 25.3839 13.0171 25.7892L13.2642 26.2835C11.7003 26.1108 10.2236 25.6453 8.88988 24.9429L8.97645 23.5019C9.00363 23.0497 8.65904 22.6611 8.20678 22.6339C7.75577 22.6074 7.36591 22.9513 7.33873 23.4035L7.30592 23.9492C6.07174 23.0383 5.01239 21.9039 4.18826 20.6058L4.98275 19.4024C5.23234 19.0242 5.12822 18.5154 4.75011 18.2658C4.372 18.0163 3.8632 18.1204 3.6136 18.4985L3.30982 18.9586C2.70563 17.5847 2.34464 16.0809 2.28126 14.5016L3.57401 13.855C3.97919 13.6523 4.14336 13.1596 3.94074 12.7544C3.73807 12.3492 3.24539 12.1851 2.84016 12.3877L2.34606 12.6348C2.51871 11.0708 2.98432 9.59405 3.68672 8.26033L5.12762 8.3469C5.14435 8.34789 5.16103 8.34838 5.1776 8.34838C5.6081 8.34838 5.96947 8.01271 5.99567 7.57724C6.02279 7.12497 5.67826 6.73637 5.22605 6.70919L4.68033 6.67637C5.59126 5.44214 6.7258 4.38274 8.02396 3.55855L9.22757 4.3531C9.36675 4.44497 9.52359 4.48889 9.67874 4.48889C9.94507 4.48889 10.2064 4.35933 10.3641 4.12041C10.6137 3.7423 10.5095 3.23349 10.1314 2.9839L9.67125 2.68016C11.0451 2.07598 12.5488 1.71504 14.128 1.65166L14.7747 2.94452C14.9185 3.2319 15.2081 3.39804 15.509 3.39804C15.6323 3.39804 15.7575 3.37015 15.8753 3.3112C16.2805 3.10853 16.4447 2.6158 16.242 2.21062L15.9948 1.71641C17.5589 1.88906 19.0357 2.35467 20.3695 3.05718L20.2831 4.49813C20.256 4.95039 20.6006 5.33895 21.0529 5.36607C21.0696 5.36711 21.0862 5.36755 21.1027 5.36755C21.5333 5.36755 21.8947 5.03182 21.9208 4.59629L21.9535 4.0509C23.1877 4.96182 24.247 6.09636 25.0712 7.39453L24.2766 8.59786C24.0269 8.97592 24.131 9.48478 24.509 9.73443C24.6482 9.82636 24.8051 9.87027 24.9603 9.87027C25.2266 9.87027 25.4878 9.74077 25.6456 9.5019L25.9495 9.04171C26.5536 10.4156 26.9146 11.9194 26.9779 13.4987L25.6851 14.1451C25.2799 14.3477 25.1157 14.8404 25.3183 15.2456C25.462 15.5331 25.7517 15.6993 26.0526 15.6993C26.1759 15.6993 26.3011 15.6714 26.4188 15.6125L26.9131 15.3653C26.7404 16.9293 26.2749 18.4061 25.5724 19.7398L24.1313 19.6534C23.679 19.6266 23.2905 19.9709 23.2634 20.4231C23.2362 20.8754 23.5809 21.2639 24.0331 21.291L24.5788 21.3237C23.6679 22.5579 22.5333 23.6172 21.2352 24.4414Z" fill="white"/>
<path d="M14.6289 5.27197C9.81626 5.27197 5.90088 9.18741 5.90088 14.0001C5.90088 18.8127 9.81626 22.7282 14.6289 22.7282C19.4415 22.7282 23.3569 18.8128 23.3569 14.0001C23.3569 9.18741 19.4415 5.27197 14.6289 5.27197ZM14.6289 15.8157C13.6277 15.8157 12.8133 15.0012 12.8133 14.0001C12.8133 12.9989 13.6278 12.1845 14.6289 12.1845C15.6301 12.1845 16.4445 12.999 16.4445 14.0001C16.4445 15.0012 15.6301 15.8157 14.6289 15.8157ZM7.54149 14.0001C7.54149 13.0026 7.74903 12.0527 8.1226 11.1909L11.3116 13.032C11.2217 13.3394 11.1726 13.664 11.1726 14.0001C11.1726 14.3362 11.2217 14.6607 11.3116 14.9681L8.12255 16.8092C7.74909 15.9474 7.54149 14.9976 7.54149 14.0001ZM17.9462 13.032L21.1352 11.1909C21.5087 12.0527 21.7163 13.0026 21.7163 14.0001C21.7163 14.9976 21.5088 15.9474 21.1352 16.8092L17.9462 14.9681C18.036 14.6607 18.0851 14.3362 18.0851 14.0001C18.0851 13.664 18.036 13.3394 17.9462 13.032ZM20.313 9.7712L17.1241 11.6122C16.6761 11.1443 16.0985 10.8017 15.4493 10.643V6.96033C17.4354 7.19034 19.1741 8.24438 20.313 9.7712ZM13.8086 6.96033V10.643C13.1593 10.8017 12.5817 11.1442 12.1337 11.6122L8.94482 9.7712C10.0837 8.24438 11.8224 7.19034 13.8086 6.96033ZM8.94482 18.2289L12.1337 16.3879C12.5817 16.8559 13.1593 17.1984 13.8086 17.3571V21.0398C11.8224 20.8098 10.0837 19.7558 8.94482 18.2289ZM15.4492 21.0398V17.3571C16.0985 17.1984 16.6761 16.8559 17.1241 16.3879L20.313 18.2289C19.1741 19.7558 17.4354 20.8098 15.4492 21.0398Z" fill="white"/>
</g>
<defs>
<clipPath id="clip0_4_8309">
<rect width="28" height="28" fill="white" transform="translate(0.628906)"/>
</clipPath>
</defs>
</svg>
