<svg width="107" height="103" viewBox="0 0 107 103" fill="none" xmlns="http://www.w3.org/2000/svg">
<path d="M0.628906 30C0.628906 13.4315 14.0604 0 30.6289 0H76.6289C93.1974 0 106.629 13.4315 106.629 30V73C106.629 89.5685 93.1974 103 76.6289 103H30.6289C14.0604 103 0.628906 89.5685 0.628906 73V30Z" fill="#474FA0"/>
<path d="M80.7734 37.7507L80.7564 37.6829C79.3853 32.1402 73.2042 26.1926 67.5278 24.9552L67.4637 24.9421C58.2824 23.1905 48.973 23.1905 39.7935 24.9421L39.7276 24.9552C34.0531 26.1926 27.8719 32.1402 26.499 37.6829L26.4839 37.7507C24.7889 45.4913 24.7889 53.3411 26.4839 61.0817L26.499 61.1495C27.8134 66.4556 33.5342 72.13 38.9988 73.6905V79.8777C38.9988 82.117 41.7277 83.2169 43.2796 81.601L49.5484 75.0848C50.908 75.1609 52.2683 75.2032 53.6286 75.2032C58.2504 75.2032 62.874 74.7663 67.4637 73.8905L67.5278 73.8773C73.2042 72.64 79.3853 66.6924 80.7564 61.1497L80.7734 61.0819C82.4684 53.3411 82.4684 45.4913 80.7734 37.7507ZM75.8126 59.9592C74.8973 63.5752 70.204 68.0708 66.475 68.9013C61.5931 69.8297 56.6727 70.2265 51.7572 70.0903C51.6594 70.0877 51.5654 70.1255 51.4972 70.1956C50.7997 70.9116 46.9201 74.8942 46.9201 74.8942L42.0517 79.8907C41.6957 80.2617 41.0705 80.0094 41.0705 79.4971V69.2475C41.0705 69.0782 40.9495 68.9343 40.7832 68.9017C40.7823 68.9015 40.7814 68.9013 40.7804 68.9012C37.0514 68.0706 32.36 63.575 31.4428 59.959C29.9173 52.9624 29.9173 45.8697 31.4428 38.873C32.36 35.257 37.0514 30.7614 40.7804 29.9309C49.3064 28.3093 57.9509 28.3093 66.475 29.9309C70.2059 30.7614 74.8973 35.257 75.8126 38.873C77.3398 45.8699 77.3398 52.9626 75.8126 59.9592Z" fill="white"/>
<path d="M61.7388 64.6911C61.1655 64.5171 60.6192 64.4001 60.1118 64.1896C54.8542 62.0083 50.0155 59.1942 46.1827 54.8804C44.0031 52.4273 42.2972 49.6579 40.8551 46.727C40.1712 45.3371 39.5949 43.8927 39.0075 42.4578C38.4719 41.1493 39.2608 39.7974 40.0916 38.8115C40.8711 37.8862 41.8742 37.178 42.9605 36.6561C43.8084 36.2488 44.6448 36.4836 45.264 37.2023C46.6027 38.7561 47.8323 40.3893 48.8281 42.1904C49.4403 43.2982 49.2723 44.6523 48.1627 45.4062C47.893 45.5894 47.6472 45.8045 47.396 46.0115C47.1756 46.1929 46.9683 46.3761 46.8172 46.6217C46.5411 47.0711 46.5279 47.601 46.7057 48.0896C48.0742 51.8503 50.3807 54.7745 54.1659 56.3496C54.7715 56.6016 55.3799 56.895 56.0776 56.8136C57.2463 56.6771 57.6246 55.3953 58.4435 54.7256C59.2439 54.0711 60.2668 54.0624 61.129 54.608C61.9914 55.1538 62.8274 55.7398 63.6583 56.3319C64.474 56.9131 65.2861 57.4817 66.0385 58.1442C66.7619 58.7814 67.0111 59.6172 66.6037 60.4818C65.8579 62.0654 64.7727 63.3828 63.2073 64.2237C62.7652 64.4608 62.2373 64.5376 61.7388 64.6911C62.2373 64.5376 61.1655 64.5169 61.7388 64.6911Z" fill="white"/>
<path d="M53.6393 34.8457C60.5163 35.0384 66.1647 39.6023 67.3751 46.4012C67.5813 47.5596 67.6548 48.7441 67.7465 49.9198C67.7851 50.4144 67.5051 50.8843 66.9713 50.8907C66.4201 50.8973 66.172 50.4361 66.1362 49.9417C66.0654 48.9631 66.0163 47.9802 65.8814 47.0097C65.1695 41.8868 61.0845 37.6485 55.9854 36.739C55.2181 36.6021 54.4327 36.5661 53.6555 36.4846C53.1641 36.433 52.5206 36.4032 52.4117 35.7925C52.3204 35.2804 52.7526 34.8726 53.2402 34.8465C53.3728 34.8391 53.5061 34.8451 53.6393 34.8457C60.5163 35.0384 53.5061 34.8451 53.6393 34.8457Z" fill="white"/>
<path d="M64.0982 48.3907C64.0869 48.4765 64.0809 48.6784 64.0306 48.8687C63.8481 49.5591 62.8013 49.6455 62.5603 48.9487C62.4889 48.7419 62.4782 48.5067 62.4778 48.2841C62.4753 46.8275 62.1587 45.3724 61.4242 44.1051C60.6692 42.8026 59.5156 41.7076 58.1626 41.045C57.3445 40.6444 56.4597 40.3955 55.5631 40.2471C55.1711 40.1823 54.7751 40.1429 54.3813 40.0881C53.904 40.0218 53.6492 39.7176 53.6718 39.2474C53.6929 38.8067 54.0149 38.4897 54.4952 38.5168C56.0734 38.6065 57.5978 38.9475 59.0009 39.6905C61.8542 41.2015 63.4841 43.5866 63.9598 46.7714C63.9813 46.9156 64.0159 47.0586 64.0268 47.2034C64.0538 47.561 64.0707 47.9191 64.0982 48.3907C64.0869 48.4765 64.0707 47.9191 64.0982 48.3907Z" fill="white"/>
<path d="M59.8192 48.2209C59.244 48.2312 58.9362 47.9129 58.8769 47.3856C58.8357 47.0179 58.8031 46.6453 58.7154 46.2876C58.5426 45.5832 58.1681 44.9303 57.5755 44.4986C57.2957 44.2947 56.9787 44.1462 56.6466 44.0503C56.2247 43.9285 55.7867 43.962 55.3657 43.8589C54.9086 43.7469 54.6558 43.3767 54.7277 42.9479C54.793 42.5576 55.1727 42.253 55.5991 42.2839C58.2643 42.4763 60.1692 43.8542 60.441 46.9917C60.4602 47.2131 60.4828 47.4471 60.4337 47.6589C60.3495 48.0215 60.0811 48.2032 59.8192 48.2209C60.0811 48.2032 59.244 48.2312 59.8192 48.2209Z" fill="white"/>
</svg>
