<svg width="62" height="79" viewBox="0 0 62 79" fill="none" xmlns="http://www.w3.org/2000/svg">
<path fill-rule="evenodd" clip-rule="evenodd" d="M31.132 0.000488281C39.2789 0.000488281 46.9391 2.95162 52.7001 8.30951C63.3617 18.2235 64.6867 36.877 55.5329 48.2245L34.3403 76.691C32.7409 78.8394 29.523 78.8395 27.9235 76.6911L6.69446 48.1786C-2.42269 36.877 -1.09774 18.2235 9.56386 8.30951C15.3249 2.95162 22.9835 0.000488281 31.132 0.000488281ZM31.1289 41.0005C38.0325 41.0005 43.6289 35.404 43.6289 28.5005C43.6289 21.5969 38.0325 16.0005 31.1289 16.0005C24.2254 16.0005 18.6289 21.5969 18.6289 28.5005C18.6289 35.404 24.2254 41.0005 31.1289 41.0005Z" fill="url(#paint0_linear_4_7863)"/>
<defs>
<linearGradient id="paint0_linear_4_7863" x1="0.52479" y1="19.9312" x2="76.5039" y2="22.154" gradientUnits="userSpaceOnUse">
<stop stop-color="#FD4B0D"/>
<stop offset="1" stop-color="#FF855A"/>
</linearGradient>
</defs>
</svg>
