<svg width="41" height="41" viewBox="0 0 41 41" fill="none" xmlns="http://www.w3.org/2000/svg">
<path d="M0.628906 20.0041C0.628906 8.95612 9.58503 0 20.633 0C31.6809 0 40.637 8.95612 40.637 20.0041C40.637 31.052 31.6809 40.0081 20.633 40.0081C9.58503 40.0081 0.628906 31.052 0.628906 20.0041Z" fill="#0798E3"/>
<path d="M10.0213 18.4908L27.2274 11.4109C28.026 11.103 28.7234 11.6188 28.4647 12.9075L28.4662 12.9059L25.5365 27.6355C25.3194 28.6798 24.7379 28.9338 23.9245 28.4418L19.4631 24.9327L17.3112 27.1451C17.0733 27.3991 16.8725 27.6133 16.4115 27.6133L16.7283 22.768L24.9967 14.7961C25.3566 14.4581 24.9164 14.2676 24.442 14.6041L14.2239 21.4697L9.81906 20.0033C8.86284 19.6795 8.84202 18.9828 10.0213 18.4908Z" fill="white"/>
</svg>
