<svg width="41" height="41" viewBox="0 0 41 41" fill="none" xmlns="http://www.w3.org/2000/svg">
<path d="M0.541016 20.0041C0.541016 8.95612 9.49714 0 20.5451 0C31.593 0 40.5491 8.95612 40.5491 20.0041C40.5491 31.052 31.593 40.0081 20.5451 40.0081C9.49714 40.0081 0.541016 31.052 0.541016 20.0041Z" fill="#474FA0"/>
<path d="M30.7904 14.2485L30.784 14.2229C30.2665 12.1309 27.9335 9.88603 25.791 9.419L25.7669 9.41403C22.3015 8.75294 18.7878 8.75294 15.3232 9.41403L15.2983 9.419C13.1565 9.88603 10.8235 12.1309 10.3053 14.2229L10.2996 14.2485C9.65988 17.17 9.65988 20.1328 10.2996 23.0544L10.3053 23.08C10.8014 25.0827 12.9607 27.2244 15.0232 27.8134V30.1487C15.0232 30.9939 16.0532 31.409 16.6389 30.7991L19.005 28.3396C19.5181 28.3684 20.0316 28.3844 20.545 28.3844C22.2894 28.3844 24.0345 28.2194 25.7669 27.8889L25.791 27.8839C27.9335 27.4169 30.2665 25.1721 30.784 23.08L30.7904 23.0545C31.4302 20.1328 31.4302 17.17 30.7904 14.2485ZM28.918 22.6307C28.5726 23.9955 26.8011 25.6923 25.3937 26.0058C23.5511 26.3562 21.694 26.506 19.8387 26.4546C19.8018 26.4536 19.7663 26.4679 19.7406 26.4943C19.4773 26.7646 18.013 28.2677 18.013 28.2677L16.1755 30.1536C16.0411 30.2936 15.8051 30.1984 15.8051 30.005V26.1365C15.8051 26.0726 15.7595 26.0182 15.6967 26.0059C15.6964 26.0059 15.696 26.0058 15.6956 26.0057C14.2882 25.6923 12.5175 23.9955 12.1713 22.6307C11.5955 19.9899 11.5955 17.3128 12.1713 14.6721C12.5175 13.3072 14.2882 11.6105 15.6956 11.297C18.9136 10.6849 22.1764 10.6849 25.3937 11.297C26.8019 11.6105 28.5726 13.3072 28.918 14.6721C29.4945 17.3129 29.4945 19.9899 28.918 22.6307Z" fill="white"/>
<path d="M23.6058 24.4166C23.3895 24.3509 23.1832 24.3067 22.9917 24.2273C21.0074 23.404 19.1811 22.3418 17.7344 20.7137C16.9118 19.7878 16.2679 18.7425 15.7236 17.6363C15.4655 17.1117 15.248 16.5665 15.0263 16.0249C14.8241 15.531 15.1219 15.0208 15.4354 14.6487C15.7296 14.2994 16.1082 14.0322 16.5182 13.8352C16.8383 13.6814 17.154 13.7701 17.3877 14.0413C17.8929 14.6278 18.3571 15.2442 18.7329 15.924C18.964 16.3421 18.9006 16.8532 18.4817 17.1378C18.3799 17.2069 18.2872 17.2881 18.1924 17.3662C18.1092 17.4347 18.0309 17.5038 17.9739 17.5965C17.8697 17.7661 17.8647 17.9662 17.9318 18.1506C18.4483 19.57 19.3189 20.6737 20.7475 21.2682C20.9762 21.3633 21.2058 21.474 21.4691 21.4433C21.9102 21.3918 22.053 20.908 22.3621 20.6552C22.6642 20.4082 23.0502 20.4049 23.3757 20.6109C23.7012 20.8169 24.0167 21.038 24.3303 21.2615C24.6382 21.4809 24.9447 21.6955 25.2287 21.9455C25.5017 22.186 25.5958 22.5015 25.442 22.8278C25.1605 23.4255 24.7509 23.9227 24.1601 24.2401C23.9933 24.3296 23.794 24.3586 23.6058 24.4166C23.794 24.3586 23.3895 24.3508 23.6058 24.4166Z" fill="white"/>
<path d="M20.5493 13.152C23.1449 13.2247 25.2768 14.9473 25.7337 17.5134C25.8115 17.9506 25.8392 18.3977 25.8738 18.8415C25.8884 19.0281 25.7827 19.2055 25.5812 19.2079C25.3732 19.2104 25.2796 19.0363 25.2661 18.8497C25.2393 18.4804 25.2208 18.1094 25.1699 17.7431C24.9012 15.8095 23.3594 14.2098 21.4348 13.8666C21.1452 13.8149 20.8487 13.8013 20.5554 13.7705C20.3699 13.7511 20.127 13.7398 20.0859 13.5093C20.0515 13.316 20.2146 13.1621 20.3986 13.1522C20.4487 13.1495 20.499 13.1517 20.5493 13.152C23.1449 13.2247 20.499 13.1517 20.5493 13.152Z" fill="white"/>
<path d="M24.4966 18.2645C24.4923 18.2969 24.4901 18.3731 24.4711 18.4449C24.4022 18.7055 24.0071 18.7381 23.9161 18.4751C23.8892 18.397 23.8851 18.3082 23.885 18.2242C23.8841 17.6745 23.7646 17.1253 23.4874 16.6469C23.2024 16.1553 22.767 15.742 22.2563 15.492C21.9475 15.3408 21.6136 15.2468 21.2751 15.1908C21.1272 15.1663 20.9777 15.1515 20.8291 15.1308C20.649 15.1058 20.5528 14.991 20.5613 14.8135C20.5693 14.6471 20.6908 14.5275 20.8721 14.5377C21.4678 14.5716 22.0431 14.7003 22.5727 14.9807C23.6496 15.551 24.2648 16.4512 24.4444 17.6533C24.4525 17.7077 24.4655 17.7617 24.4697 17.8163C24.4798 17.9513 24.4862 18.0865 24.4966 18.2645C24.4923 18.2969 24.4862 18.0865 24.4966 18.2645Z" fill="white"/>
<path d="M22.8814 18.2004C22.6643 18.2043 22.5481 18.0841 22.5257 17.8851C22.5102 17.7463 22.4979 17.6057 22.4648 17.4707C22.3995 17.2048 22.2582 16.9584 22.0345 16.7955C21.9289 16.7185 21.8093 16.6624 21.6839 16.6263C21.5247 16.5803 21.3593 16.5929 21.2005 16.554C21.0279 16.5117 20.9325 16.372 20.9597 16.2102C20.9843 16.0629 21.1276 15.9479 21.2886 15.9596C22.2945 16.0322 23.0135 16.5522 23.1161 17.7365C23.1233 17.82 23.1318 17.9083 23.1133 17.9883C23.0815 18.1251 22.9802 18.1937 22.8814 18.2004C22.9802 18.1937 22.6643 18.2043 22.8814 18.2004Z" fill="white"/>
</svg>
