<svg width="20" height="15" viewBox="0 0 20 15" fill="none" xmlns="http://www.w3.org/2000/svg">
<path d="M17.9591 0H2.29963C2.04258 0 1.80194 0.0631946 1.58423 0.167356L10.0923 8.67539L11.9992 6.84275C11.9992 6.84275 11.9993 6.84256 11.9994 6.84249C11.9994 6.84241 11.9996 6.84234 11.9996 6.84234L18.6748 0.167504C18.457 0.0632687 18.2162 0 17.9591 0Z" fill="#FD4B0D"/>
<path d="M19.4612 0.95459L13.1794 7.23597L19.4609 13.5175C19.5651 13.2997 19.6283 13.0591 19.6283 12.8021V1.66973C19.6283 1.41283 19.5652 1.17223 19.4612 0.95459Z" fill="#FD4B0D"/>
<path d="M0.796262 0.954346C0.692101 1.17206 0.628906 1.4127 0.628906 1.66975V12.8021C0.628906 13.059 0.692027 13.2997 0.796114 13.5173L7.07783 7.23591L0.796262 0.954346Z" fill="#FD4B0D"/>
<path d="M12.3933 8.02327L10.4861 9.85613C10.3774 9.96486 10.2349 10.0192 10.0926 10.0192C9.95017 10.0192 9.80772 9.96486 9.69903 9.85613L7.86605 8.02319L1.58423 14.3046C1.80198 14.4088 2.04277 14.4721 2.29989 14.4721H17.9594C18.2164 14.4721 18.4571 14.4089 18.6748 14.3048L12.3933 8.02327Z" fill="#FD4B0D"/>
</svg>
