<svg width="20" height="19" viewBox="0 0 20 19" fill="none" xmlns="http://www.w3.org/2000/svg">
<path d="M19.6198 14.9854C19.6601 15.2938 19.5661 15.562 19.3383 15.79L16.6631 18.4449C16.5424 18.579 16.3849 18.6931 16.1904 18.7868C15.996 18.8807 15.805 18.9411 15.6173 18.9679C15.6039 18.9679 15.5636 18.9713 15.4965 18.978C15.4295 18.9847 15.3424 18.9881 15.2351 18.9881C14.9803 18.9881 14.5679 18.9445 13.998 18.8573C13.4281 18.7701 12.7308 18.5556 11.9062 18.2137C11.0814 17.8718 10.1462 17.3588 9.10027 16.675C8.05438 15.9912 6.94137 15.0525 5.76135 13.859C4.8227 12.9338 4.04496 12.0488 3.42813 11.204C2.81131 10.3592 2.31516 9.57809 1.9397 8.86069C1.56421 8.14329 1.28261 7.49294 1.09488 6.90964C0.90715 6.32633 0.779761 5.82348 0.712714 5.40109C0.645668 4.9787 0.618849 4.64682 0.632259 4.40545C0.645668 4.16408 0.652373 4.02999 0.652373 4.00317C0.679191 3.81544 0.739533 3.62436 0.833398 3.42992C0.927263 3.23549 1.04124 3.07793 1.17534 2.95724L3.85049 0.282084C4.03822 0.0943535 4.25277 0.000488281 4.49414 0.000488281C4.66846 0.000488281 4.82267 0.0507732 4.95676 0.151343C5.09086 0.251913 5.20483 0.375949 5.2987 0.523452L7.4509 4.60659C7.57158 4.82114 7.6051 5.0558 7.55147 5.31058C7.49783 5.56535 7.38385 5.7799 7.20953 5.95422L6.22394 6.93981C6.19712 6.96663 6.17366 7.01021 6.15354 7.07055C6.13343 7.13089 6.12337 7.18118 6.12337 7.2214C6.17701 7.503 6.29769 7.82482 6.48542 8.18688C6.64634 8.5087 6.89441 8.90092 7.22964 9.36354C7.56487 9.82616 8.0409 10.3592 8.65773 10.9626C9.26115 11.5795 9.79753 12.0588 10.2669 12.4008C10.7361 12.7426 11.1284 12.9941 11.4436 13.155C11.7587 13.3159 12 13.4132 12.1676 13.4466L12.419 13.4969C12.4458 13.4969 12.4895 13.4868 12.5498 13.4667C12.6101 13.4466 12.6537 13.4231 12.6805 13.3963L13.827 12.2297C14.0685 12.0152 14.35 11.9079 14.6718 11.9079C14.8998 11.9079 15.0808 11.9481 15.2149 12.0286H15.2349L19.1169 14.3216C19.3986 14.496 19.5662 14.7172 19.6198 14.9854Z" fill="#FD4B0D"/>
</svg>
