<svg width="15" height="15" viewBox="0 0 15 15" fill="none" xmlns="http://www.w3.org/2000/svg">
<path d="M14.4018 11.761C14.4322 11.9937 14.3613 12.196 14.1894 12.368L12.1712 14.3708C12.0802 14.472 11.9614 14.5581 11.8147 14.6288C11.668 14.6996 11.5239 14.7452 11.3823 14.7654C11.3722 14.7654 11.3418 14.768 11.2912 14.773C11.2407 14.7781 11.1749 14.7806 11.094 14.7806C10.9017 14.7806 10.5906 14.7478 10.1607 14.682C9.73079 14.6162 9.20479 14.4543 8.58272 14.1964C7.96049 13.9385 7.25494 13.5515 6.46592 13.0356C5.67691 12.5198 4.83727 11.8116 3.94707 10.9113C3.23896 10.2133 2.65224 9.54565 2.18691 8.90838C1.72158 8.27105 1.34729 7.6818 1.06405 7.1406C0.780777 6.59941 0.568344 6.10879 0.426722 5.66875C0.2851 5.22871 0.188999 4.84936 0.13842 4.53071C0.0878402 4.21206 0.0676084 3.96169 0.0777243 3.77961C0.0878402 3.59752 0.0928981 3.49636 0.0928981 3.47613C0.11313 3.33451 0.158651 3.19036 0.229462 3.04368C0.300273 2.897 0.386258 2.77814 0.487417 2.68709L2.50553 0.668976C2.64716 0.527354 2.80901 0.456543 2.9911 0.456543C3.1226 0.456543 3.23893 0.494477 3.34009 0.570347C3.44125 0.646216 3.52724 0.739787 3.59805 0.851062L5.22165 3.93134C5.31269 4.0932 5.33798 4.27023 5.29751 4.46243C5.25705 4.65463 5.17107 4.81648 5.03956 4.94799L4.29604 5.69151C4.27581 5.71174 4.25811 5.74461 4.24293 5.79014C4.22776 5.83566 4.22017 5.87359 4.22017 5.90394C4.26064 6.11637 4.35168 6.35915 4.4933 6.63228C4.61469 6.87506 4.80184 7.17095 5.05473 7.51995C5.30763 7.86895 5.66674 8.27103 6.13207 8.72624C6.58729 9.19162 6.99192 9.55322 7.34598 9.81122C7.69996 10.0691 7.99595 10.2588 8.23367 10.3802C8.47139 10.5016 8.65348 10.5749 8.7799 10.6002L8.96953 10.6381C8.98976 10.6381 9.02271 10.6305 9.06818 10.6154C9.1137 10.6002 9.14658 10.5825 9.16683 10.5622L10.0317 9.68214C10.2139 9.52031 10.4262 9.43939 10.669 9.43939C10.8411 9.43939 10.9776 9.46971 11.0787 9.53043H11.0939L14.0224 11.2602C14.2349 11.3918 14.3613 11.5587 14.4018 11.761Z" fill="white"/>
</svg>
