<svg width="41" height="40" viewBox="0 0 41 40" fill="none" xmlns="http://www.w3.org/2000/svg">
<rect x="0.866943" width="40.0077" height="40" rx="20" fill="url(#paint0_radial_4_8187)"/>
<path d="M10.9946 16.0867C11.0618 15.6121 11.1131 15.1348 11.1985 14.6636C11.6828 11.9949 13.5725 10.1792 16.2745 10.0861C19.5277 9.97435 22.7908 9.96845 26.0436 10.0856C28.9844 10.1915 31.1142 12.3686 31.206 15.3098C31.3038 18.4329 31.3038 21.5637 31.206 24.6869C31.1142 27.6281 28.9851 29.8049 26.0438 29.911C22.7911 30.0285 19.5272 30.0314 16.2747 29.9093C13.3334 29.7988 11.3002 27.6168 11.1035 24.6711C11.0865 24.4163 11.0318 24.1637 10.9946 23.9102C10.9946 21.3023 10.9946 18.6944 10.9946 16.0867ZM21.1397 28.1679C22.6283 28.1679 24.1184 28.2125 25.6051 28.1576C27.936 28.0712 29.3697 26.6803 29.4241 24.3521C29.4916 21.451 29.4916 18.5459 29.4241 15.6446C29.3697 13.3168 27.935 11.8935 25.6051 11.844C22.6478 11.7815 19.6873 11.782 16.73 11.844C14.4178 11.8925 12.9799 13.287 12.9171 15.5892C12.8373 18.527 12.8373 21.4699 12.9171 24.4077C12.9799 26.7096 14.4178 28.0719 16.7302 28.1576C18.1982 28.2122 19.6698 28.1679 21.1397 28.1679Z" fill="url(#paint1_linear_4_8187)"/>
<path d="M10.8687 16.0867C10.9359 15.6121 10.9871 15.1348 11.0725 14.6636C11.5568 11.9949 13.4465 10.1792 16.1485 10.0861C19.4018 9.97435 22.6649 9.96845 25.9176 10.0856C28.8584 10.1915 30.9882 12.3686 31.08 15.3098C31.1778 18.4329 31.1778 21.5637 31.08 24.6869C30.9882 27.6281 28.8592 29.8049 25.9179 29.911C22.6651 30.0285 19.4013 30.0314 16.1488 29.9093C13.2075 29.7988 11.1742 27.6168 10.9775 24.6711C10.9605 24.4163 10.9058 24.1637 10.8687 23.9102C10.8687 21.3023 10.8687 18.6944 10.8687 16.0867ZM21.0137 28.1679C22.5024 28.1679 23.9925 28.2125 25.4791 28.1576C27.81 28.0712 29.2437 26.6803 29.2982 24.3521C29.3656 21.451 29.3656 18.5459 29.2982 15.6446C29.2437 13.3168 27.809 11.8935 25.4791 11.844C22.5218 11.7815 19.5613 11.782 16.604 11.844C14.2918 11.8925 12.8539 13.287 12.7911 15.5892C12.7113 18.527 12.7113 21.4699 12.7911 24.4077C12.8539 26.7096 14.2918 28.0719 16.6043 28.1576C18.0722 28.2122 19.5438 28.1679 21.0137 28.1679Z" fill="white"/>
<path d="M21.0106 14.832C18.156 14.832 15.8416 17.1458 15.8416 19.9998C15.8416 22.8542 18.156 25.1679 21.0106 25.1679C23.8655 25.1679 26.1797 22.8542 26.1797 19.9998C26.1797 17.1458 23.8655 14.832 21.0106 14.832ZM21.0106 23.3886C19.1386 23.3886 17.6212 21.8715 17.6212 19.9998C17.6212 18.1282 19.1386 16.6111 21.0106 16.6111C22.8826 16.6111 24.4 18.1282 24.4 19.9998C24.4 21.8715 22.8826 23.3886 21.0106 23.3886Z" fill="white"/>
<path d="M27.7107 14.5963C27.7107 15.2752 27.1603 15.8257 26.4813 15.8257C25.8024 15.8257 25.2517 15.2752 25.2517 14.5963C25.2517 13.9171 25.8024 13.3667 26.4813 13.3667C27.1603 13.3667 27.7107 13.9171 27.7107 14.5963Z" fill="white"/>
<defs>
<radialGradient id="paint0_radial_4_8187" cx="0" cy="0" r="1" gradientUnits="userSpaceOnUse" gradientTransform="translate(9.0683 34.9568) scale(44.1215 44.113)">
<stop stop-color="#FAE100"/>
<stop offset="0.0544" stop-color="#FADC04"/>
<stop offset="0.1167" stop-color="#FBCE0E"/>
<stop offset="0.1829" stop-color="#FCB720"/>
<stop offset="0.2514" stop-color="#FE9838"/>
<stop offset="0.3054" stop-color="#FF7950"/>
<stop offset="0.4922" stop-color="#FF1C74"/>
<stop offset="1" stop-color="#6C1CD1"/>
</radialGradient>
<linearGradient id="paint1_linear_4_8187" x1="27.5447" y1="13.6382" x2="14.4924" y2="26.693" gradientUnits="userSpaceOnUse">
<stop stop-color="#833AB4"/>
<stop offset="0.0922" stop-color="#9C3495"/>
<stop offset="0.2927" stop-color="#DC2546"/>
<stop offset="0.392" stop-color="#FD1D1D"/>
<stop offset="0.5589" stop-color="#FC6831"/>
<stop offset="0.6887" stop-color="#FC9B40"/>
<stop offset="0.7521" stop-color="#FCAF45"/>
<stop offset="0.7806" stop-color="#FDB750"/>
<stop offset="0.8656" stop-color="#FECB6A"/>
<stop offset="0.9415" stop-color="#FFD87A"/>
<stop offset="1" stop-color="#FFDC80"/>
</linearGradient>
</defs>
</svg>
