<svg width="18" height="18" viewBox="0 0 18 18" fill="none" xmlns="http://www.w3.org/2000/svg">
<path d="M12.9078 11.5488C13.7701 10.3715 14.2859 8.92535 14.2859 7.35765C14.2859 3.43324 11.0923 0.240234 7.16709 0.240234C3.24193 0.240234 0.0483398 3.43324 0.0483398 7.35765C0.0483398 11.2821 3.24196 14.4751 7.16713 14.4751C8.73514 14.4751 10.1817 13.9593 11.3592 13.0972L16.0229 17.76L17.5715 16.2116C17.5715 16.2116 12.9078 11.5488 12.9078 11.5488ZM7.16713 12.2851C4.44945 12.2851 2.23875 10.0748 2.23875 7.35765C2.23875 4.64049 4.44945 2.43022 7.16713 2.43022C9.88481 2.43022 12.0955 4.64049 12.0955 7.35765C12.0955 10.0748 9.88477 12.2851 7.16713 12.2851Z" fill="#474FA0"/>
</svg>
