<svg width="13" height="13" viewBox="0 0 13 13" fill="none" xmlns="http://www.w3.org/2000/svg">
<path fill-rule="evenodd" clip-rule="evenodd" d="M12.938 9.54478V11.3503C12.9393 11.6892 12.7975 12.013 12.5472 12.2421C12.2969 12.4712 11.9614 12.5844 11.6231 12.5539C9.76715 12.3527 7.98437 11.7199 6.41801 10.7063C4.96072 9.7823 3.72519 8.54946 2.79917 7.09534C1.77985 5.52529 1.1455 3.73773 0.947527 1.87748C0.917052 1.54098 1.02972 1.20719 1.258 0.957654C1.48629 0.708116 1.80917 0.565807 2.14778 0.565489H3.9572C4.56267 0.559543 5.07874 1.0024 5.16348 1.60064C5.23985 2.17843 5.38148 2.74575 5.58568 3.29178C5.75138 3.73164 5.6454 4.2275 5.31426 4.56164L4.54828 5.32596C5.40688 6.83267 6.65713 8.0802 8.16712 8.93694L8.93311 8.17261C9.26797 7.8422 9.76491 7.73645 10.2057 7.90179C10.7529 8.10554 11.3215 8.24686 11.9006 8.32307C12.5071 8.40845 12.9532 8.9338 12.938 9.54478Z" fill="#FE4B09"/>
</svg>
