<svg width="41" height="41" viewBox="0 0 41 41" fill="none" xmlns="http://www.w3.org/2000/svg">
<path d="M0.893066 20.8527C0.893066 9.80475 9.85305 0.848633 20.901 0.848633C31.9489 0.848633 40.9089 9.80475 40.9089 20.8527C40.9089 31.9006 31.9489 40.8568 20.901 40.8568C9.85305 40.8568 0.893066 31.9006 0.893066 20.8527Z" fill="#0798E3"/>
<path d="M10.7927 19.1666L28.0021 12.0867C28.8009 11.7788 29.4985 12.2946 29.2397 13.5833L29.2412 13.5817L26.3109 28.3113C26.0938 29.3556 25.5122 29.6095 24.6986 29.1175L20.2363 25.6085L18.084 27.8209C17.8461 28.0748 17.6453 28.2891 17.1842 28.2891L17.501 23.4438L25.771 15.4719C26.131 15.1338 25.6907 14.9434 25.2162 15.2798L14.9962 22.1455L10.5904 20.6791C9.63403 20.3553 9.6132 19.6586 10.7927 19.1666Z" fill="white"/>
</svg>
