<svg width="41" height="41" viewBox="0 0 41 41" fill="none" xmlns="http://www.w3.org/2000/svg">
<path d="M0.81543 20.8527C0.81543 9.80475 9.77542 0.848633 20.8234 0.848633C31.8713 0.848633 40.8313 9.80475 40.8313 20.8527C40.8313 31.9006 31.8713 40.8568 20.8234 40.8568C9.77542 40.8568 0.81543 31.9006 0.81543 20.8527Z" fill="#474FA0"/>
<path d="M31.0708 15.0973L31.0644 15.0718C30.5468 12.9797 28.2134 10.7349 26.0705 10.2679L26.0463 10.2629C22.5803 9.60182 19.0659 9.60182 15.6006 10.2629L15.5757 10.2679C13.4335 10.7349 11.1001 12.9797 10.5818 15.0718L10.5761 15.0973C9.93622 18.0189 9.93622 20.9817 10.5761 23.9033L10.5818 23.9289C11.078 25.9316 13.2377 28.0733 15.3006 28.6623V30.9975C15.3006 31.8427 16.3308 32.2579 16.9166 31.648L19.2831 29.1885C19.7964 29.2172 20.3099 29.2332 20.8235 29.2332C22.5682 29.2332 24.3137 29.0683 26.0463 28.7378L26.0705 28.7328C28.2134 28.2658 30.5468 26.0209 31.0644 23.9289L31.0708 23.9033C31.7107 20.9817 31.7107 18.0189 31.0708 15.0973ZM29.1981 23.4796C28.8526 24.8444 27.0808 26.5412 25.6731 26.8547C23.8301 27.2051 21.9726 27.3548 20.117 27.3034C20.0801 27.3024 20.0446 27.3167 20.0188 27.3432C19.7555 27.6134 18.2909 29.1166 18.2909 29.1166L16.4531 31.0024C16.3187 31.1425 16.0826 31.0472 16.0826 30.8539V26.9853C16.0826 26.9214 16.037 26.8671 15.9742 26.8548C15.9739 26.8548 15.9735 26.8547 15.9732 26.8546C14.5654 26.5411 12.7944 24.8443 12.4481 23.4795C11.8722 20.8387 11.8722 18.1617 12.4481 15.5209C12.7944 14.1561 14.5654 12.4593 15.9732 12.1459C19.1918 11.5338 22.4552 11.5338 25.6731 12.1459C27.0815 12.4593 28.8526 14.1561 29.1981 15.5209C29.7746 18.1618 29.7746 20.8388 29.1981 23.4796Z" fill="white"/>
<path d="M23.8856 25.2654C23.6692 25.1998 23.4629 25.1556 23.2714 25.0762C21.2866 24.2529 19.46 23.1907 18.013 21.5625C17.1902 20.6367 16.5462 19.5914 16.0018 18.4851C15.7437 17.9605 15.5261 17.4154 15.3043 16.8738C15.1021 16.3799 15.4 15.8697 15.7136 15.4976C16.0079 15.1483 16.3865 14.881 16.7966 14.6841C17.1167 14.5303 17.4325 14.6189 17.6662 14.8902C18.1716 15.4767 18.6358 16.0931 19.0117 16.7729C19.2428 17.191 19.1794 17.7021 18.7605 17.9866C18.6587 18.0558 18.5659 18.137 18.4711 18.2151C18.3879 18.2836 18.3096 18.3527 18.2526 18.4454C18.1483 18.615 18.1434 18.8151 18.2105 18.9994C18.7271 20.4189 19.5978 21.5226 21.0267 22.1171C21.2554 22.2122 21.485 22.3229 21.7485 22.2922C22.1896 22.2407 22.3325 21.7569 22.6416 21.5041C22.9438 21.2571 23.3299 21.2538 23.6554 21.4597C23.9809 21.6657 24.2965 21.8869 24.6102 22.1104C24.9181 22.3297 25.2247 22.5443 25.5088 22.7944C25.7818 23.0349 25.8759 23.3504 25.7221 23.6767C25.4406 24.2744 25.0309 24.7716 24.4399 25.089C24.2731 25.1785 24.0738 25.2075 23.8856 25.2654C24.0738 25.2075 23.6692 25.1997 23.8856 25.2654Z" fill="white"/>
<path d="M20.8274 14.0011C23.4236 14.0738 25.5559 15.7964 26.0128 18.3625C26.0907 18.7998 26.1184 19.2468 26.153 19.6906C26.1676 19.8773 26.0619 20.0546 25.8604 20.057C25.6523 20.0595 25.5586 19.8854 25.5451 19.6988C25.5184 19.3295 25.4998 18.9585 25.4489 18.5922C25.1802 16.6586 23.6381 15.059 21.7131 14.7157C21.4234 14.664 21.127 14.6504 20.8335 14.6197C20.648 14.6002 20.4051 14.5889 20.364 14.3584C20.3295 14.1651 20.4927 14.0112 20.6768 14.0014C20.7268 13.9986 20.7772 14.0009 20.8274 14.0011C23.4236 14.0738 20.7772 14.0009 20.8274 14.0011Z" fill="white"/>
<path d="M24.7758 19.1131C24.7715 19.1455 24.7693 19.2217 24.7503 19.2935C24.6814 19.5541 24.2862 19.5867 24.1952 19.3237C24.1682 19.2457 24.1642 19.1569 24.164 19.0729C24.1631 18.5231 24.0436 17.9739 23.7663 17.4956C23.4812 17.0039 23.0457 16.5907 22.5349 16.3406C22.226 16.1894 21.892 16.0954 21.5534 16.0394C21.4055 16.015 21.2559 16.0001 21.1072 15.9794C20.9271 15.9544 20.8309 15.8396 20.8394 15.6621C20.8474 15.4958 20.9689 15.3761 21.1503 15.3864C21.7461 15.4202 22.3216 15.5489 22.8514 15.8294C23.9286 16.3997 24.5439 17.2999 24.7235 18.5019C24.7317 18.5564 24.7447 18.6103 24.7489 18.665C24.759 18.8 24.7654 18.9351 24.7758 19.1131C24.7715 19.1455 24.7654 18.9351 24.7758 19.1131Z" fill="white"/>
<path d="M23.1599 19.0493C22.9428 19.0532 22.8267 18.933 22.8043 18.734C22.7887 18.5952 22.7764 18.4546 22.7433 18.3196C22.6781 18.0537 22.5368 17.8073 22.3131 17.6443C22.2075 17.5674 22.0878 17.5113 21.9625 17.4751C21.8033 17.4292 21.6379 17.4418 21.479 17.4029C21.3065 17.3606 21.2111 17.2209 21.2382 17.059C21.2629 16.9117 21.4062 16.7968 21.5671 16.8084C22.5731 16.8811 23.292 17.4011 23.3946 18.5853C23.4019 18.6689 23.4104 18.7572 23.3918 18.8371C23.3601 18.974 23.2588 19.0426 23.1599 19.0493C23.2588 19.0426 22.9428 19.0532 23.1599 19.0493Z" fill="white"/>
</svg>
