<svg width="27" height="18" viewBox="0 0 27 18" fill="none" xmlns="http://www.w3.org/2000/svg">
<path d="M25.7555 1.73455C25.0501 0.471273 24.2846 0.238909 22.7259 0.150545C21.1689 0.0441818 17.2535 0 13.8615 0C10.4629 0 6.54594 0.0441819 4.99051 0.148909C3.43509 0.238909 2.66794 0.469636 1.95605 1.73455C1.22954 2.99618 0.855713 5.16927 0.855713 8.99509C0.855713 8.99836 0.855713 9 0.855713 9C0.855713 9.00327 0.855713 9.00491 0.855713 9.00491V9.00818C0.855713 12.8176 1.22954 15.0071 1.95605 16.2556C2.66794 17.5189 3.43346 17.748 4.98889 17.8544C6.54594 17.946 10.4629 18 13.8615 18C17.2535 18 21.1689 17.946 22.7276 17.856C24.2862 17.7496 25.0518 17.5205 25.7572 16.2573C26.4902 15.0087 26.8607 12.8193 26.8607 9.00982C26.8607 9.00982 26.8607 9.00491 26.8607 9.00164C26.8607 9.00164 26.8607 8.99836 26.8607 8.99673C26.8607 5.16927 26.4902 2.99618 25.7555 1.73455ZM10.6076 13.9091V4.09091L18.7342 9L10.6076 13.9091Z" fill="white"/>
</svg>
