<svg width="45" height="44" viewBox="0 0 45 44" fill="none" xmlns="http://www.w3.org/2000/svg">
<rect x="0.854004" width="44.0085" height="44" rx="4" fill="#ED1C24"/>
<path d="M34.7555 13.7345C34.0501 12.4713 33.2846 12.2389 31.7259 12.1505C30.1689 12.0442 26.2535 12 22.8615 12C19.4629 12 15.5459 12.0442 13.9905 12.1489C12.4351 12.2389 11.6679 12.4696 10.9561 13.7345C10.2295 14.9962 9.85571 17.1693 9.85571 20.9951C9.85571 20.9984 9.85571 21 9.85571 21C9.85571 21.0033 9.85571 21.0049 9.85571 21.0049V21.0082C9.85571 24.8176 10.2295 27.0071 10.9561 28.2556C11.6679 29.5189 12.4335 29.748 13.9889 29.8544C15.5459 29.946 19.4629 30 22.8615 30C26.2535 30 30.1689 29.946 31.7276 29.856C33.2862 29.7496 34.0518 29.5205 34.7572 28.2573C35.4902 27.0087 35.8607 24.8193 35.8607 21.0098C35.8607 21.0098 35.8607 21.0049 35.8607 21.0016C35.8607 21.0016 35.8607 20.9984 35.8607 20.9967C35.8607 17.1693 35.4902 14.9962 34.7555 13.7345ZM19.6076 25.9091V16.0909L27.7342 21L19.6076 25.9091Z" fill="white"/>
</svg>
