<svg width="24" height="24" viewBox="0 0 24 24" fill="none" xmlns="http://www.w3.org/2000/svg">
<g clip-path="url(#clip0_4_8010)">
<path d="M14.7448 8.38676C14.7218 8.24822 14.6559 8.12037 14.5567 8.02105L11.3802 4.84458C11.117 4.58143 10.6904 4.58143 10.4273 4.84458L9.31549 5.95635L8.52136 5.16222C8.25821 4.89907 7.83159 4.89907 7.56844 5.16222L4.70961 8.02105C4.49097 8.23969 4.4492 8.57907 4.60827 8.8442L5.29054 9.98126L1.53318 13.7387C1.27003 14.0018 1.27003 14.4284 1.53318 14.6916L2.32731 15.4857L1.61575 16.1972C0.979387 16.8336 0.628906 17.6797 0.628906 18.5796V22.767C0.628906 23.1392 0.930602 23.4408 1.30273 23.4408C1.67487 23.4408 1.97656 23.1392 1.97656 22.767V18.5796C1.97656 18.0397 2.18684 17.532 2.56868 17.1502L3.28024 16.4386L5.0273 18.1857C6.34095 19.4994 8.47837 19.4993 9.79198 18.1857L15.1919 12.7857C15.3458 12.6318 15.4159 12.4132 15.3801 12.1985L14.7448 8.38676ZM8.83905 17.2328C8.0509 18.0209 6.76842 18.021 5.98022 17.2328L5.50374 16.7563L8.00634 14.2537V15.1681C8.00634 15.5402 8.30803 15.8419 8.68016 15.8419C9.0523 15.8419 9.35399 15.5402 9.35399 15.1681V13.7171L11.3544 14.7173L8.83905 17.2328Z" fill="white"/>
<path d="M22.6395 8.98456C22.1822 8.19628 21.7316 7.54244 21.7126 7.51499C21.5868 7.33283 21.3796 7.22412 21.1582 7.22412C20.9368 7.22412 20.7296 7.33283 20.6038 7.51499C20.5848 7.54244 20.1342 8.19628 19.6769 8.98456C18.7901 10.5133 18.6875 11.1476 18.6875 11.4917C18.6875 12.854 19.7959 13.9624 21.1582 13.9624C22.5205 13.9624 23.6289 12.854 23.6289 11.4917C23.6289 11.1476 23.5263 10.5133 22.6395 8.98456V8.98456Z" fill="white"/>
<path d="M20.8407 3.80983C21.0206 3.80983 21.1899 3.73971 21.3171 3.61245C21.4444 3.48514 21.5145 3.31592 21.5145 3.13601V1.11479C21.5145 0.743287 21.2122 0.441008 20.8406 0.440963L19.695 0.440918C17.6851 0.440828 15.7955 1.22355 14.3742 2.64479L12.7302 4.28879L15.1126 6.67113L16.7567 5.02699C17.5415 4.24221 18.5849 3.81001 19.6947 3.80997L20.8407 3.80983Z" fill="white"/>
</g>
<defs>
<clipPath id="clip0_4_8010">
<rect width="23" height="23" fill="white" transform="translate(0.628906 0.440918)"/>
</clipPath>
</defs>
</svg>
