<svg width="24" height="24" viewBox="0 0 24 24" fill="none" xmlns="http://www.w3.org/2000/svg">
<g clip-path="url(#clip0_4_8015)">
<path d="M9.72111 15.4055C9.66109 15.4429 9.59863 15.4764 9.53423 15.5057C9.5158 15.5143 9.49931 15.5262 9.48053 15.5345C9.42403 15.5557 9.36629 15.5738 9.30751 15.5884C9.38402 16.1636 9.31769 16.7488 9.11414 17.2924C9.67952 17.2466 10.2231 17.0545 10.6917 16.7349C10.5195 16.199 10.1793 15.7328 9.72111 15.4055Z" fill="white"/>
<path d="M10.2286 13.1425C10.2662 13.2027 10.2995 13.265 10.3288 13.3294C10.3376 13.348 10.3494 13.3643 10.3576 13.3833C10.379 13.4398 10.3969 13.4975 10.4115 13.5561C10.9867 13.4796 11.5721 13.5461 12.1155 13.7496C12.0697 13.1843 11.8778 12.6406 11.5582 12.1721C11.0221 12.3443 10.5559 12.6845 10.2286 13.1425Z" fill="white"/>
<path d="M10.4451 14.3795C10.4402 14.4013 10.4311 14.4206 10.4253 14.4432C10.4079 14.5159 10.3858 14.5875 10.3588 14.6571C10.3505 14.6761 10.3388 14.6926 10.33 14.711C10.3158 14.7419 10.2981 14.7705 10.2821 14.8005C10.7427 15.1536 11.1095 15.6145 11.3499 16.1427C11.718 15.7103 11.967 15.1897 12.0728 14.6317C11.5715 14.3745 11.0007 14.286 10.4451 14.3795Z" fill="white"/>
<path d="M7.96592 12.635C8.02277 12.5999 8.08191 12.5683 8.14297 12.5406C8.16473 12.5299 8.18404 12.5155 8.20702 12.5062C8.26335 12.4848 8.32091 12.4669 8.37952 12.4523C8.30301 11.8771 8.36934 11.2917 8.57289 10.7483C8.00768 10.7939 7.46388 10.9861 6.99536 11.3056C7.1675 11.8417 7.50775 12.3077 7.96592 12.635Z" fill="white"/>
<path d="M9.26645 12.4394C9.33927 12.4567 9.41069 12.479 9.48053 12.506C9.49931 12.5141 9.5158 12.526 9.53423 12.5346C9.56511 12.549 9.59389 12.5664 9.62389 12.5827C9.97678 12.1221 10.4378 11.7554 10.9661 11.515C10.5337 11.1468 10.0129 10.8978 9.45509 10.792C9.19801 11.2928 9.10957 11.8631 9.20293 12.4181C9.22469 12.4246 9.24469 12.4337 9.26645 12.4394Z" fill="white"/>
<path d="M8.49269 13.2809C8.32213 13.3623 8.18473 13.4997 8.10331 13.6703C8.0984 13.6813 8.09103 13.6912 8.08647 13.7024C8.07506 13.7322 8.06558 13.7629 8.05769 13.794C8.05155 13.8152 8.04295 13.8351 8.03839 13.858C8.03382 13.881 8.03558 13.8933 8.03312 13.9105C8.01891 13.9833 8.01891 14.0583 8.03312 14.1311C8.03558 14.1483 8.03312 14.1664 8.03839 14.1832C8.04365 14.2001 8.0519 14.2243 8.05804 14.2478C8.06558 14.2787 8.07506 14.3092 8.08647 14.339C8.09103 14.3501 8.0984 14.3603 8.10366 14.3713C8.14806 14.465 8.20983 14.5492 8.28563 14.6198C8.60394 14.9021 9.08282 14.9021 9.40113 14.6198C9.47694 14.5492 9.53871 14.465 9.5831 14.3713C9.58837 14.3603 9.59591 14.3501 9.6003 14.339C9.6117 14.3092 9.62118 14.2787 9.62873 14.2478C9.63487 14.226 9.64382 14.2067 9.64838 14.1832C9.65294 14.1599 9.65119 14.1483 9.65382 14.1311C9.66803 14.0583 9.66803 13.9833 9.65382 13.9105C9.65119 13.8933 9.65382 13.8752 9.64838 13.858C9.64311 13.8407 9.63522 13.817 9.62908 13.794C9.62118 13.7629 9.6117 13.7322 9.6003 13.7024C9.59591 13.6912 9.58837 13.6813 9.58345 13.6703C9.50221 13.4994 9.36463 13.3618 9.19372 13.2806C9.18266 13.2756 9.17284 13.2683 9.16178 13.2634C9.1316 13.2523 9.10107 13.2428 9.07018 13.2349C9.04878 13.2288 9.02912 13.2202 9.00596 13.2156C8.98297 13.2111 8.97069 13.2128 8.95349 13.2104C8.88067 13.1962 8.80574 13.1962 8.73292 13.2104C8.71572 13.2128 8.69765 13.2104 8.6808 13.2156C8.66396 13.2209 8.63764 13.2291 8.61623 13.2353C8.58534 13.243 8.55499 13.2523 8.52516 13.2634C8.5148 13.2677 8.50375 13.2751 8.49269 13.2809Z" fill="white"/>
<path d="M8.42043 15.6011C8.34761 15.5838 8.27619 15.5615 8.20635 15.5346C8.18758 15.5264 8.17108 15.5144 8.15266 15.5058C8.12177 15.4915 8.09299 15.4743 8.06316 15.4578C7.71011 15.9186 7.24913 16.2853 6.72095 16.5257C7.15332 16.8937 7.67396 17.1429 8.2318 17.2485C8.48887 16.7479 8.57731 16.1776 8.48413 15.6225C8.46237 15.6159 8.44219 15.6069 8.42043 15.6011Z" fill="white"/>
<path d="M10.1227 4.37848L10.2697 4.84752L13.2108 4.60852L12.8637 3.5127L10.1227 4.37848Z" fill="white"/>
<path d="M13.1516 1.69897L8.84338 3.0596L9.09098 3.84326L9.48158 3.71973L9.48404 3.7185L13.0079 2.60547L13.0103 2.60494L13.3994 2.48229L13.1516 1.69897Z" fill="white"/>
<path d="M7.45815 14.898C7.42077 14.838 7.38725 14.7755 7.35795 14.7111C7.34935 14.6927 7.33742 14.6762 7.32917 14.6572C7.30829 14.6011 7.29039 14.5437 7.2753 14.4856C7.1179 14.504 6.95944 14.5139 6.80099 14.5147C6.3809 14.5186 5.96379 14.4431 5.57178 14.2922C5.61723 14.8571 5.8092 15.4004 6.12856 15.8685C6.66464 15.6964 7.13088 15.356 7.45815 14.898Z" fill="white"/>
<path d="M20.3434 4.16336V9.91327C20.3434 10.3669 20.711 10.7347 21.1648 10.7347H21.9862V3.3418H21.1648C20.711 3.3418 20.3434 3.70959 20.3434 4.16336Z" fill="white"/>
<path d="M18.2898 6.2168H19.5218V7.03838H18.2898V6.2168Z" fill="white"/>
<path d="M18.2898 7.85986H19.5218V8.68127H18.2898V7.85986Z" fill="white"/>
<path d="M7.24168 13.6609C7.24659 13.6391 7.25571 13.6198 7.26151 13.5972C7.27888 13.5245 7.30099 13.4531 7.32801 13.3833C7.33626 13.3643 7.34819 13.348 7.35679 13.3294C7.37118 13.2987 7.38873 13.2699 7.40487 13.2399C6.94407 12.887 6.57732 12.4261 6.33692 11.8977C5.96895 12.3301 5.71977 12.8509 5.61414 13.4087C6.1153 13.6658 6.68612 13.7542 7.24168 13.6609Z" fill="white"/>
<path d="M18.2898 9.91323C18.2898 10.1399 18.4737 10.3238 18.7004 10.3238H19.1112C19.3381 10.3238 19.5218 10.1399 19.5218 9.91323V9.50244H18.2898V9.91323Z" fill="white"/>
<path d="M22.8075 3.3418V10.7347C23.2611 10.7347 23.6289 10.3669 23.6289 9.91327V4.16336C23.6289 3.70959 23.2611 3.3418 22.8075 3.3418Z" fill="white"/>
<path d="M19.1112 4.57397H18.7004C18.4737 4.57397 18.2898 4.75787 18.2898 4.98476V5.39538H19.5218V4.98476C19.5218 4.75787 19.3381 4.57397 19.1112 4.57397Z" fill="white"/>
<path d="M8.42634 5.81842H8.40002C8.25087 5.82579 8.08627 5.83685 7.92273 5.85948C7.90396 5.86229 7.88501 5.8637 7.86606 5.86352C3.488 6.38836 0.305267 10.2761 0.655336 14.6716C1.00541 19.0672 4.76351 22.402 9.16947 22.2271C13.5754 22.0521 17.0572 18.4297 17.0577 14.0202C17.0601 12.8893 16.8266 11.7701 16.3718 10.7347H15.0041C14.7774 10.7347 14.5935 10.5508 14.5935 10.3239C14.5935 10.097 14.7774 9.91327 15.0041 9.91327H17.4685V5.0874L8.45828 5.8172L8.42634 5.81842ZM14.5935 14.0202C14.5935 17.1958 12.0192 19.7701 8.84362 19.7701C5.6679 19.7701 3.09371 17.1958 3.09371 14.0202C3.09371 10.8447 5.6679 8.27031 8.84362 8.27031C12.0177 8.27382 14.59 10.8461 14.5935 14.0202Z" fill="white"/>
<path d="M8.84343 18.9488C11.5654 18.9488 13.7718 16.7422 13.7718 14.0203C13.7718 11.2984 11.5654 9.0918 8.84343 9.0918C6.12149 9.0918 3.91492 11.2984 3.91492 14.0203C3.9179 16.741 6.12272 18.9458 8.84343 18.9488ZM6.31591 10.7902C7.17099 10.1169 8.25945 9.81246 9.33984 9.94407C10.4202 10.0758 11.4036 10.633 12.072 11.4921L12.0744 11.4958C12.7474 12.3512 13.0514 13.4398 12.9193 14.5202C12.787 15.6006 12.2295 16.5838 11.3701 17.2518C9.58568 18.6475 7.0078 18.3324 5.61209 16.548C4.21638 14.7638 4.53153 12.1857 6.31591 10.7902Z" fill="white"/>
</g>
<defs>
<clipPath id="clip0_4_8015">
<rect width="23" height="23" fill="white" transform="translate(0.628906 0.440918)"/>
</clipPath>
</defs>
</svg>
