<svg width="18" height="23" viewBox="0 0 18 23" fill="none" xmlns="http://www.w3.org/2000/svg">
<path d="M12.0946 9.15511C13.5532 7.82527 15.5257 6.02673 15.7055 1.72998H17.0078V0.440918H0.25V1.72998H1.55234C1.73212 6.02673 3.70464 7.82527 5.16326 9.15511C6.1417 10.0472 6.69531 10.5932 6.69531 11.4409C6.69531 12.2886 6.1417 12.8347 5.16326 13.7267C3.70464 15.0566 1.73212 16.8551 1.55234 21.1519H0.25V22.4409H17.0078V21.1519H15.7055C15.5257 16.8551 13.5532 15.0566 12.0946 13.7267C11.1161 12.8347 10.5625 12.2886 10.5625 11.4409C10.5625 10.5932 11.1161 10.0472 12.0946 9.15511ZM7.98438 16.2722C7.7853 16.3133 7.58863 16.3731 7.39669 16.4525L3.44885 18.0861C4.09355 16.4469 5.13194 15.4997 6.03175 14.6793C7.03593 13.7638 7.98438 12.8991 7.98438 11.4409V16.2722ZM11.2261 14.6793C12.1259 15.4997 13.1642 16.4469 13.809 18.0861L9.86112 16.4524C9.66918 16.373 9.47251 16.3133 9.27344 16.2722V11.4409C9.27344 12.8991 10.2219 13.7638 11.2261 14.6793ZM3.42621 4.73779C3.11455 3.92573 2.89932 2.94522 2.84299 1.72998H14.4148C14.3584 2.94522 14.1433 3.92573 13.8316 4.73779H3.42621Z" fill="white"/>
</svg>
