<svg width="27" height="24" viewBox="0 0 27 24" fill="none" xmlns="http://www.w3.org/2000/svg">
<path d="M18.8785 9.95776V12.8959L21.6742 11.984C21.0108 10.9997 20.0204 10.2821 18.8785 9.95776Z" fill="white"/>
<path d="M17.9666 13.0191V9.78612C17.8161 9.77248 17.6647 9.76294 17.5106 9.76294C17.3565 9.76294 17.2052 9.77248 17.0548 9.78612V13.0191C17.3525 12.9328 17.6688 12.9328 17.9666 13.0191Z" fill="white"/>
<path d="M18.4225 14.778C18.4225 15.2816 18.0143 15.6899 17.5107 15.6899C17.0072 15.6899 16.5989 15.2816 16.5989 14.778C16.5989 14.2745 17.0072 13.8662 17.5107 13.8662C18.0143 13.8662 18.4225 14.2745 18.4225 14.778Z" fill="white"/>
<path d="M11.6404 4.52626C12.4034 4.8202 12.9958 5.43848 13.2568 6.21318C14.3305 5.67613 15.4963 5.34771 16.6926 5.24525C15.6851 4.60379 14.5596 4.16978 13.382 3.96856C11.9273 3.7352 10.5478 3.16328 9.35486 2.29858C9.851 3.27217 10.6543 4.05524 11.6404 4.52626Z" fill="white"/>
<path d="M15.9763 13.8004L12.9029 12.8005C12.7837 13.0803 12.6902 13.3701 12.6235 13.6668L15.6982 14.6657C15.7157 14.3583 15.8114 14.0605 15.9763 13.8004Z" fill="white"/>
<path d="M19.3228 14.6657L22.3977 13.6668C22.3309 13.3701 22.2374 13.0803 22.1182 12.8005L19.0447 13.8004C19.2097 14.0605 19.3053 14.3583 19.3228 14.6657Z" fill="white"/>
<path d="M10.1702 8.64236C9.72644 8.03693 9.39061 7.35944 9.17712 6.63987C9.10232 6.43144 9.02985 6.22943 8.95564 6.04711C8.83428 5.70563 8.65351 5.38831 8.4217 5.10976C8.00075 4.66251 7.26268 4.57816 6.54953 4.49654L6.25559 4.46187C4.37874 4.16831 2.65637 3.24947 1.36702 1.85435C1.0271 1.43982 0.778546 0.958292 0.637515 0.440918C0.519469 2.43561 1.62045 4.68627 3.63385 5.22001C5.39752 5.68732 9.06686 6.65857 8.43086 9.0822C8.09523 10.3612 7.89284 11.134 7.27319 11.1459C6.70926 11.1751 6.38493 10.4674 5.99028 9.18525C5.56251 7.79481 3.96266 7.60644 2.79876 7.66702C3.47022 8.05563 4.06746 8.56074 4.56224 9.15837C5.02468 9.86041 5.24869 10.693 5.20058 11.5325C5.19824 11.9784 5.25317 12.4227 5.36421 12.8546C5.62776 13.6977 6.40285 14.2069 7.22391 14.7462C7.47111 14.9085 7.72005 15.0764 7.9616 15.2533C7.95244 15.0973 7.93608 14.9391 7.93608 14.7782C7.93491 12.5336 8.72597 10.3606 10.1702 8.64236Z" fill="white"/>
<path d="M16.1426 9.95776C15.0005 10.2827 14.0102 11.0013 13.3469 11.9862L16.1426 12.8982V9.95776Z" fill="white"/>
<path d="M17.5106 6.11548C12.7265 6.11548 8.8479 9.99403 8.8479 14.7782C8.8479 19.5625 12.7265 23.4409 17.5106 23.4409C22.295 23.4409 26.1733 19.5625 26.1733 14.7782C26.168 9.99618 22.2926 6.12074 17.5106 6.11548ZM17.0548 7.02731C17.3065 7.02731 17.5106 7.23146 17.5106 7.48333C17.5106 7.7352 17.3065 7.93934 17.0548 7.93934C16.8029 7.93934 16.5988 7.7352 16.5988 7.48333C16.5988 7.23146 16.8029 7.02731 17.0548 7.02731ZM11.1276 12.0427C11.0483 12.0427 10.9706 12.022 10.902 11.9825C10.6834 11.8574 10.6075 11.5791 10.7323 11.3605C12.6372 8.0268 15.0408 7.51196 15.1421 7.49248C15.3858 7.44885 15.6197 7.60741 15.6692 7.84993C15.7187 8.09245 15.5658 8.33029 15.3244 8.38561C15.2907 8.39341 13.2043 8.87474 11.5252 11.8128C11.4437 11.9554 11.2918 12.0433 11.1276 12.0427ZM20.2157 20.0456L20.213 20.0487C20.1694 20.0795 20.1208 20.1025 20.0692 20.1161C18.4265 20.9146 16.5055 20.9008 14.8745 20.0789C14.8517 20.0706 14.8295 20.0606 14.8084 20.0487L14.8055 20.0456C12.5165 18.894 11.2427 16.387 11.6625 13.859C11.6629 13.8512 11.6638 13.8432 11.6652 13.8354V13.833C12.0776 11.3052 14.0661 9.32764 16.596 8.92909H16.5988C17.2022 8.82566 17.819 8.82566 18.4224 8.92909H18.4257C20.9552 9.32823 22.943 11.3056 23.3552 13.833V13.8354C23.3566 13.8432 23.3576 13.8512 23.3579 13.859C23.7775 16.387 22.504 18.894 20.2147 20.0456H20.2157Z" fill="white"/>
<path d="M18.1801 16.4709L20.0744 19.0805C20.3358 18.9243 20.5826 18.7449 20.8117 18.5445L18.9119 15.9309C18.7175 16.1699 18.4656 16.3556 18.1801 16.4709Z" fill="white"/>
<path d="M12.5049 14.5872C12.5026 14.6511 12.4954 14.714 12.4954 14.7783C12.4954 15.9012 12.8744 16.9915 13.5714 17.8722L15.2988 15.4949L12.5049 14.5872Z" fill="white"/>
<path d="M19.7223 15.4949L21.4499 17.8722C22.1467 16.9915 22.5258 15.9012 22.5258 14.7783C22.5258 14.714 22.5186 14.6511 22.5162 14.5872L19.7223 15.4949Z" fill="white"/>
<path d="M15.7836 19.4808C16.8972 19.8978 18.124 19.8978 19.2377 19.4808L17.5106 17.1035L15.7836 19.4808Z" fill="white"/>
<path d="M16.1095 15.9309L14.2095 18.5445C14.4386 18.7449 14.6854 18.9243 14.9468 19.0805L16.8411 16.4709C16.5556 16.3556 16.3039 16.1699 16.1095 15.9309Z" fill="white"/>
</svg>
