<svg width="22" height="8" viewBox="0 0 22 8" fill="none" xmlns="http://www.w3.org/2000/svg">
<path d="M1 3.5C0.723858 3.5 0.5 3.72386 0.5 4C0.5 4.27614 0.723858 4.5 1 4.5V3.5ZM21.4836 4.35355C21.6788 4.15829 21.6788 3.84171 21.4836 3.64645L18.3016 0.464466C18.1063 0.269204 17.7897 0.269204 17.5945 0.464466C17.3992 0.659728 17.3992 0.976311 17.5945 1.17157L20.4229 4L17.5945 6.82843C17.3992 7.02369 17.3992 7.34027 17.5945 7.53553C17.7897 7.7308 18.1063 7.7308 18.3016 7.53553L21.4836 4.35355ZM1 4.5H21.13V3.5H1V4.5Z" fill="black"/>
</svg>
