<svg width="22" height="8" viewBox="0 0 22 8" fill="none" xmlns="http://www.w3.org/2000/svg">
<path d="M21.2852 4.5C21.5613 4.5 21.7852 4.27614 21.7852 4C21.7852 3.72386 21.5613 3.5 21.2852 3.5L21.2852 4.5ZM0.802571 3.64644C0.607309 3.84171 0.607309 4.15829 0.802571 4.35355L3.98455 7.53553C4.17981 7.73079 4.4964 7.73079 4.69166 7.53553C4.88692 7.34027 4.88692 7.02369 4.69166 6.82843L1.86323 4L4.69166 1.17157C4.88692 0.976309 4.88692 0.659727 4.69166 0.464465C4.4964 0.269202 4.17981 0.269202 3.98455 0.464465L0.802571 3.64644ZM21.2852 3.5L1.15612 3.5L1.15612 4.5L21.2852 4.5L21.2852 3.5Z" fill="black"/>
</svg>
