<svg width="36" height="38" viewBox="0 0 36 38" fill="none" xmlns="http://www.w3.org/2000/svg">
<path d="M34.7396 9.67455L34.7292 9.63281C33.885 6.22038 30.0795 2.55865 26.5848 1.79685L26.5454 1.78874C20.8928 0.710395 15.1613 0.710395 9.50987 1.78874L9.46929 1.79685C5.97569 2.55865 2.17018 6.22038 1.3249 9.63281L1.31563 9.67455C0.27207 14.4401 0.27207 19.273 1.31563 24.0385L1.3249 24.0803C2.13412 27.3471 5.65624 30.8406 9.02056 31.8013V35.6105C9.02056 36.9892 10.7007 37.6663 11.6561 36.6715L15.5155 32.6597C16.3526 32.7066 17.1901 32.7326 18.0276 32.7326C20.873 32.7326 23.7196 32.4636 26.5454 31.9245L26.5848 31.9163C30.0795 31.1546 33.885 27.4928 34.7292 24.0804L34.7396 24.0387C35.7832 19.273 35.7832 14.4401 34.7396 9.67455ZM31.6855 23.3475C31.1219 25.5737 28.2324 28.3415 25.9366 28.8528C22.9311 29.4243 19.9017 29.6686 16.8754 29.5848C16.8152 29.5832 16.7574 29.6065 16.7154 29.6496C16.2859 30.0905 13.8974 32.5424 13.8974 32.5424L10.9001 35.6185C10.681 35.847 10.296 35.6916 10.296 35.3762V29.0659C10.296 28.9617 10.2216 28.8731 10.1192 28.853C10.1186 28.8529 10.118 28.8528 10.1174 28.8527C7.82162 28.3414 4.93329 25.5736 4.36861 23.3474C3.42941 19.0398 3.42941 14.6731 4.36861 10.3655C4.93329 8.13925 7.82162 5.3715 10.1174 4.86016C15.3665 3.86182 20.6887 3.86182 25.9366 4.86016C28.2336 5.3715 31.1219 8.13925 31.6855 10.3655C32.6257 14.6732 32.6257 19.0399 31.6855 23.3475Z" fill="white"/>
<path d="M23.0203 26.2611C22.6673 26.154 22.3309 26.082 22.0186 25.9523C18.7817 24.6094 15.8027 22.8769 13.443 20.221C12.1011 18.7108 11.0508 17.0057 10.1629 15.2013C9.74193 14.3456 9.38712 13.4563 9.02547 12.5729C8.6957 11.7673 9.18142 10.935 9.69288 10.328C10.1728 9.75832 10.7904 9.32234 11.4592 9.00104C11.9812 8.75024 12.4961 8.89483 12.8774 9.3373C13.7015 10.2939 14.4586 11.2994 15.0716 12.4083C15.4486 13.0903 15.3451 13.924 14.662 14.3881C14.4959 14.5009 14.3446 14.6334 14.1899 14.7608C14.0543 14.8724 13.9266 14.9853 13.8336 15.1365C13.6636 15.4131 13.6555 15.7394 13.765 16.0402C14.6075 18.3555 16.0275 20.1559 18.3579 21.1255C18.7308 21.2807 19.1053 21.4613 19.5349 21.4113C20.2544 21.3272 20.4873 20.538 20.9915 20.1257C21.4843 19.7228 22.114 19.7174 22.6448 20.0534C23.1758 20.3894 23.6905 20.7501 24.202 21.1146C24.7042 21.4725 25.2042 21.8225 25.6674 22.2304C26.1128 22.6227 26.2662 23.1373 26.0154 23.6696C25.5562 24.6445 24.8881 25.4556 23.9243 25.9733C23.6522 26.1193 23.3272 26.1666 23.0203 26.2611C23.3272 26.1666 22.6673 26.1539 23.0203 26.2611Z" fill="white"/>
<path d="M18.0343 7.88555C22.2683 8.00417 25.7457 10.814 26.491 14.9998C26.6179 15.713 26.6631 16.4423 26.7196 17.1661C26.7434 17.4706 26.571 17.7599 26.2424 17.7639C25.903 17.7679 25.7503 17.484 25.7282 17.1796C25.6846 16.5771 25.6544 15.972 25.5714 15.3745C25.1331 12.2205 22.6181 9.61113 19.4787 9.0512C19.0063 8.96691 18.5228 8.94476 18.0443 8.89455C17.7418 8.86278 17.3456 8.84446 17.2786 8.46844C17.2223 8.15317 17.4884 7.90213 17.7886 7.88602C17.8703 7.88149 17.9523 7.8852 18.0343 7.88555C22.2683 8.00417 17.9523 7.8852 18.0343 7.88555Z" fill="white"/>
<path d="M24.4737 16.2259C24.4668 16.2788 24.463 16.4031 24.4321 16.5202C24.3197 16.9453 23.6753 16.9985 23.5269 16.5695C23.4829 16.4422 23.4763 16.2974 23.4761 16.1603C23.4746 15.2636 23.2797 14.3677 22.8274 13.5875C22.3626 12.7856 21.6524 12.1114 20.8194 11.7035C20.3157 11.4569 19.771 11.3036 19.2189 11.2122C18.9776 11.1723 18.7338 11.1481 18.4913 11.1144C18.1975 11.0736 18.0406 10.8863 18.0546 10.5968C18.0675 10.3254 18.2658 10.1303 18.5615 10.147C19.5332 10.2022 20.4717 10.4122 21.3355 10.8696C23.0922 11.7999 24.0956 13.2683 24.3885 15.229C24.4017 15.3178 24.423 15.4058 24.4298 15.495C24.4463 15.7152 24.4568 15.9356 24.4737 16.2259C24.4668 16.2788 24.4568 15.9356 24.4737 16.2259Z" fill="white"/>
<path d="M21.8384 16.1228C21.4843 16.1292 21.2948 15.9332 21.2583 15.6085C21.2329 15.3822 21.2128 15.1528 21.1588 14.9326C21.0524 14.4989 20.8219 14.0969 20.457 13.8311C20.2848 13.7056 20.0896 13.6142 19.8852 13.5552C19.6254 13.4802 19.3557 13.5008 19.0965 13.4373C18.8151 13.3683 18.6595 13.1405 18.7037 12.8764C18.744 12.6362 18.9777 12.4486 19.2403 12.4676C20.8811 12.5861 22.0539 13.4344 22.2212 15.3661C22.233 15.5024 22.247 15.6464 22.2167 15.7768C22.1649 16.0001 21.9996 16.1119 21.8384 16.1228C21.9996 16.1119 21.4843 16.1292 21.8384 16.1228Z" fill="white"/>
</svg>
