<svg width="17" height="14" viewBox="0 0 17 14" fill="none" xmlns="http://www.w3.org/2000/svg">
<path fill-rule="evenodd" clip-rule="evenodd" d="M8.73012 6.02506C7.43681 6.02506 0.77356 2.24651 0.77356 2.24651V1.65647C0.77356 0.92538 1.36691 0.332031 2.09932 0.332031H15.3609C16.094 0.332031 16.6874 0.92538 16.6874 1.65647L16.6768 2.31869C16.6768 2.31869 10.0857 6.02506 8.73012 6.02506Z" fill="#FD4B0D"/>
<path fill-rule="evenodd" clip-rule="evenodd" d="M8.73 7.84551C10.1478 7.84551 16.6766 4.30469 16.6766 4.30469L16.6872 12.2513C16.6872 12.9824 16.0939 13.5758 15.3608 13.5758H2.0992C1.36745 13.5758 0.773438 12.9824 0.773438 12.2513L0.784033 4.30469C0.783371 4.30469 7.43669 7.84551 8.73 7.84551Z" fill="#FD4B0D"/>
</svg>
