<svg width="173" height="60" viewBox="0 0 173 60" fill="none" xmlns="http://www.w3.org/2000/svg">
<path d="M50.9383 34.4268C50.9382 36.1609 123.54 35.4489 123.54 33.225C122.944 31.3563 50.9383 32.1571 50.9383 34.4268Z" fill="white"/>
<path d="M90.4599 0.923826C75.3773 4.33972 61.9116 10.9702 57.0641 13.8585C80.3814 4.86446 92.3277 2.29663 105.221 3.62535C118.114 4.95408 131.552 7.73808 140.389 10.7752C147.459 13.2048 156.108 15.3742 159.548 16.1552C154.869 16.7863 152.379 15.9974 145.134 14.893C137.889 13.7886 129.889 14.9719 121.588 17.0229C114.947 18.6638 106.758 19.4161 103.493 19.5872C106.926 19.8805 115.503 20.0892 122.353 18.5783C130.916 16.6897 141.678 16.2792 147.648 18.0857C152.424 19.5309 156.342 19.7279 157.703 19.6458C167.381 18.0036 171.686 12.2282 172.629 9.54583C164.695 15.9507 156.525 11.7629 150.869 10.1206C145.213 8.47835 109.313 -3.34604 90.4599 0.923826Z" fill="white"/>
<path d="M49.0137 15.2299C24.0249 17.0077 6.34518 24.2512 0.628906 27.6508C17.6185 21.6808 41.5831 16.6653 70.0087 18.2919C98.4342 19.9186 123.782 14.3031 132.902 11.2921C83.0804 18.3516 80.2496 13.0076 49.0137 15.2299Z" fill="white"/>
<path d="M16.3408 24.3153C10.4116 26.1219 7.56903 28.5182 6.88889 29.4905C7.89909 29.5741 11.3898 29.3964 17.2709 28.0163C24.6224 26.2912 26.0627 21.7747 25.1325 21.8061C24.2023 21.8374 23.7522 22.057 16.3408 24.3153Z" fill="white"/>
<path d="M35.675 46.3827H41.103C42.4646 46.3827 43.6729 46.6648 44.7278 47.229C45.7827 47.7932 46.5985 48.5881 47.175 49.6139C47.7638 50.6269 48.0582 51.7937 48.0582 53.1144C48.0582 54.4351 47.7638 55.6084 47.175 56.6341C46.5985 57.6471 45.7827 58.4357 44.7278 58.9999C43.6729 59.564 42.4646 59.8461 41.103 59.8461H35.675V46.3827ZM40.9926 58.1728C42.0353 58.1728 42.9491 57.9613 43.7342 57.5381C44.5315 57.115 45.1449 56.5252 45.5742 55.7686C46.0035 54.9993 46.2182 54.1146 46.2182 53.1144C46.2182 52.1143 46.0035 51.236 45.5742 50.4794C45.1449 49.7101 44.5315 49.1139 43.7342 48.6907C42.9491 48.2676 42.0353 48.056 40.9926 48.056H37.515V58.1728H40.9926Z" fill="white"/>
<path d="M59.4325 54.807C59.4325 54.948 59.4203 55.1339 59.3957 55.3647H51.4837C51.5942 56.2623 51.9683 56.9868 52.6062 57.5381C53.2563 58.0767 54.0598 58.3459 55.0166 58.3459C56.1819 58.3459 57.1203 57.9356 57.8317 57.115L58.8069 58.3075C58.3653 58.846 57.8134 59.2563 57.151 59.5384C56.5008 59.8205 55.771 59.9615 54.9614 59.9615C53.931 59.9615 53.0171 59.7436 52.2198 59.3076C51.4224 58.8588 50.803 58.2369 50.3614 57.4419C49.932 56.647 49.7174 55.7494 49.7174 54.7493C49.7174 53.7619 49.9259 52.8708 50.343 52.0758C50.7723 51.2808 51.3549 50.6654 52.091 50.2294C52.8392 49.7806 53.6795 49.5562 54.6117 49.5562C55.544 49.5562 56.372 49.7806 57.0957 50.2294C57.8317 50.6654 58.4021 51.2808 58.8069 52.0758C59.224 52.8708 59.4325 53.7812 59.4325 54.807ZM54.6117 51.1141C53.7654 51.1141 53.0539 51.3834 52.4774 51.9219C51.9131 52.4605 51.5819 53.1657 51.4837 54.0376H57.7397C57.6416 53.1785 57.3043 52.4797 56.7277 51.9412C56.1635 51.3898 55.4581 51.1141 54.6117 51.1141Z" fill="white"/>
<path d="M65.167 49.5562C66.5163 49.5562 67.5468 49.9024 68.2582 50.5948C68.9819 51.2872 69.3438 52.3194 69.3438 53.6914V59.8461H67.6694V58.4998C67.375 58.9742 66.9518 59.3396 66.3998 59.5961C65.8601 59.8397 65.2161 59.9615 64.4678 59.9615C63.3761 59.9615 62.499 59.6859 61.8366 59.1345C61.1865 58.5831 60.8614 57.8587 60.8614 56.9611C60.8614 56.0636 61.1742 55.3455 61.7998 54.807C62.4254 54.2556 63.419 53.9799 64.7806 53.9799H67.5774V53.6145C67.5774 52.8195 67.3566 52.2104 66.915 51.7873C66.4734 51.3642 65.8233 51.1526 64.9646 51.1526C64.3881 51.1526 63.8238 51.2552 63.2718 51.4603C62.7198 51.6527 62.2537 51.9155 61.8734 52.2489L61.1374 50.8641C61.6404 50.441 62.2414 50.1204 62.9406 49.9024C63.6398 49.6716 64.382 49.5562 65.167 49.5562ZM64.7622 58.5383C65.4369 58.5383 66.0195 58.3844 66.5102 58.0767C67.0009 57.7561 67.3566 57.3073 67.5774 56.7303V55.307H64.8542C63.3577 55.307 62.6094 55.8327 62.6094 56.8842C62.6094 57.3971 62.7995 57.801 63.1798 58.0959C63.5601 58.3908 64.0876 58.5383 64.7622 58.5383Z" fill="white"/>
<path d="M72.6127 45.5749H74.3791V59.8461H72.6127V45.5749Z" fill="white"/>
<path d="M86.5653 54.807C86.5653 54.948 86.5531 55.1339 86.5285 55.3647H78.6165C78.727 56.2623 79.1011 56.9868 79.739 57.5381C80.3891 58.0767 81.1926 58.3459 82.1493 58.3459C83.3147 58.3459 84.2531 57.9356 84.9645 57.115L85.9397 58.3075C85.4981 58.846 84.9461 59.2563 84.2837 59.5384C83.6336 59.8205 82.9037 59.9615 82.0941 59.9615C81.0638 59.9615 80.1499 59.7436 79.3525 59.3076C78.5552 58.8588 77.9358 58.2369 77.4941 57.4419C77.0648 56.647 76.8502 55.7494 76.8502 54.7493C76.8502 53.7619 77.0587 52.8708 77.4757 52.0758C77.9051 51.2808 78.4877 50.6654 79.2237 50.2294C79.972 49.7806 80.8123 49.5562 81.7445 49.5562C82.6768 49.5562 83.5048 49.7806 84.2285 50.2294C84.9645 50.6654 85.5349 51.2808 85.9397 52.0758C86.3568 52.8708 86.5653 53.7812 86.5653 54.807ZM81.7445 51.1141C80.8981 51.1141 80.1867 51.3834 79.6101 51.9219C79.0459 52.4605 78.7147 53.1657 78.6165 54.0376H84.8725C84.7744 53.1785 84.4371 52.4797 83.8605 51.9412C83.2963 51.3898 82.5909 51.1141 81.7445 51.1141Z" fill="white"/>
<path d="M90.7109 51.3642C91.0176 50.7743 91.4715 50.3256 92.0725 50.0178C92.6736 49.7101 93.4035 49.5562 94.2621 49.5562V51.3449C94.164 51.3321 94.0291 51.3257 93.8573 51.3257C92.9005 51.3257 92.1461 51.627 91.5941 52.2297C91.0544 52.8195 90.7845 53.6658 90.7845 54.7685V59.8461H89.0182V49.6524H90.7109V51.3642Z" fill="white"/>
<path d="M107.523 60C106.235 60 105.07 59.7051 104.027 59.1153C102.997 58.5126 102.187 57.692 101.598 56.6534C101.01 55.6019 100.715 54.4223 100.715 53.1144C100.715 51.8065 101.01 50.6333 101.598 49.5947C102.187 48.5433 103.003 47.7226 104.046 47.1328C105.088 46.5302 106.254 46.2288 107.542 46.2288C108.547 46.2288 109.467 46.4083 110.302 46.7674C111.136 47.1136 111.847 47.6329 112.436 48.3253L111.24 49.537C110.271 48.4727 109.063 47.9406 107.615 47.9406C106.658 47.9406 105.794 48.165 105.021 48.6138C104.248 49.0626 103.641 49.6844 103.199 50.4794C102.77 51.2616 102.555 52.1399 102.555 53.1144C102.555 54.0889 102.77 54.9737 103.199 55.7686C103.641 56.5508 104.248 57.1663 105.021 57.6151C105.794 58.0638 106.658 58.2882 107.615 58.2882C109.05 58.2882 110.259 57.7497 111.24 56.6726L112.436 57.8843C111.847 58.5767 111.13 59.1024 110.283 59.4615C109.449 59.8205 108.529 60 107.523 60Z" fill="white"/>
<path d="M118.229 49.5562C119.578 49.5562 120.608 49.9024 121.32 50.5948C122.044 51.2872 122.406 52.3194 122.406 53.6914V59.8461H120.731V58.4998C120.437 58.9742 120.014 59.3396 119.462 59.5961C118.922 59.8397 118.278 59.9615 117.53 59.9615C116.438 59.9615 115.561 59.6859 114.898 59.1345C114.248 58.5831 113.923 57.8587 113.923 56.9611C113.923 56.0636 114.236 55.3455 114.862 54.807C115.487 54.2556 116.481 53.9799 117.842 53.9799H120.639V53.6145C120.639 52.8195 120.418 52.2104 119.977 51.7873C119.535 51.3642 118.885 51.1526 118.026 51.1526C117.45 51.1526 116.885 51.2552 116.334 51.4603C115.782 51.6527 115.315 51.9155 114.935 52.2489L114.199 50.8641C114.702 50.441 115.303 50.1204 116.002 49.9024C116.701 49.6716 117.444 49.5562 118.229 49.5562ZM117.824 58.5383C118.499 58.5383 119.081 58.3844 119.572 58.0767C120.063 57.7561 120.418 57.3073 120.639 56.7303V55.307H117.916C116.419 55.307 115.671 55.8327 115.671 56.8842C115.671 57.3971 115.861 57.801 116.242 58.0959C116.622 58.3908 117.149 58.5383 117.824 58.5383Z" fill="white"/>
<path d="M127.367 51.3642C127.674 50.7743 128.128 50.3256 128.729 50.0178C129.33 49.7101 130.06 49.5562 130.918 49.5562V51.3449C130.82 51.3321 130.685 51.3257 130.514 51.3257C129.557 51.3257 128.802 51.627 128.25 52.2297C127.711 52.8195 127.441 53.6658 127.441 54.7685V59.8461H125.674V49.6524H127.367V51.3642Z" fill="white"/>
<path d="M135.964 59.9615C135.167 59.9615 134.4 59.8525 133.664 59.6346C132.928 59.4038 132.352 59.1153 131.935 58.7691L132.671 57.3073C133.1 57.6279 133.621 57.8843 134.235 58.0767C134.848 58.269 135.467 58.3652 136.093 58.3652C137.639 58.3652 138.411 57.9036 138.411 56.9803C138.411 56.6726 138.307 56.429 138.099 56.2495C137.89 56.07 137.626 55.9417 137.307 55.8648C137.001 55.775 136.559 55.6789 135.983 55.5763C135.197 55.4481 134.553 55.3006 134.051 55.1339C133.56 54.9672 133.137 54.6852 132.781 54.2877C132.425 53.8902 132.247 53.3324 132.247 52.6143C132.247 51.6911 132.615 50.9539 133.351 50.4025C134.087 49.8383 135.075 49.5562 136.314 49.5562C136.964 49.5562 137.614 49.6396 138.264 49.8063C138.914 49.9729 139.448 50.1973 139.865 50.4794L139.111 51.9412C138.313 51.4026 137.375 51.1334 136.295 51.1334C135.547 51.1334 134.977 51.2616 134.584 51.518C134.192 51.7745 133.995 52.1143 133.995 52.5374C133.995 52.8708 134.106 53.1337 134.327 53.326C134.547 53.5183 134.817 53.6594 135.136 53.7491C135.467 53.8389 135.927 53.9415 136.516 54.0569C137.301 54.1979 137.933 54.3518 138.411 54.5185C138.902 54.6723 139.319 54.9416 139.663 55.3263C140.006 55.7109 140.178 56.2495 140.178 56.9419C140.178 57.8651 139.797 58.6024 139.037 59.1537C138.289 59.6923 137.264 59.9615 135.964 59.9615Z" fill="white"/>
</svg>
