<svg width="120" height="29" viewBox="0 0 120 29" fill="none" xmlns="http://www.w3.org/2000/svg">
<rect x="0.628906" width="119" height="29" rx="8" fill="#40474A"/>
<path d="M24.9529 10.196V19.996H22.1809V16.174H18.4009V19.996H15.6289V10.196H18.4009V13.878H22.1809V10.196H24.9529Z" fill="#1A1F21"/>
<path d="M34.8706 18.092H30.7266L29.9566 19.996H27.1286L31.4546 10.196H34.1846L38.5246 19.996H35.6406L34.8706 18.092ZM34.0586 16.048L32.7986 12.912L31.5386 16.048H34.0586Z" fill="#1A1F21"/>
<path d="M53.9837 10.196V19.996H40.6977V10.196H43.4277V17.798H45.9897V10.196H48.7197V17.798H51.2537V10.196H53.9837Z" fill="#1A1F21"/>
<path d="M71.3947 10.196V19.996H68.6647V12.394H65.8507L65.7947 13.99C65.7481 15.39 65.6314 16.5287 65.4447 17.406C65.2674 18.2833 64.9594 18.9647 64.5207 19.45C64.0821 19.926 63.4614 20.164 62.6587 20.164C62.2854 20.164 61.8654 20.108 61.3987 19.996L61.5527 17.728C61.6741 17.756 61.8001 17.77 61.9307 17.77C62.2947 17.77 62.5747 17.6253 62.7707 17.336C62.9667 17.0467 63.1067 16.6453 63.1907 16.132C63.2747 15.6093 63.3307 14.9327 63.3587 14.102L63.4987 10.196H71.3947Z" fill="#1A1F21"/>
<path d="M79.357 20.192C78.321 20.192 77.3877 19.9727 76.557 19.534C75.7357 19.0953 75.087 18.4887 74.611 17.714C74.1443 16.9393 73.911 16.0667 73.911 15.096C73.911 14.1253 74.1443 13.2527 74.611 12.478C75.087 11.7033 75.7357 11.0967 76.557 10.658C77.3877 10.2193 78.321 10 79.357 10C80.393 10 81.3217 10.2193 82.143 10.658C82.9737 11.0967 83.6224 11.7033 84.089 12.478C84.565 13.2527 84.803 14.1253 84.803 15.096C84.803 16.0667 84.565 16.9393 84.089 17.714C83.6224 18.4887 82.9737 19.0953 82.143 19.534C81.3217 19.9727 80.393 20.192 79.357 20.192ZM79.357 17.896C79.8517 17.896 80.2997 17.7793 80.701 17.546C81.1024 17.3127 81.4197 16.986 81.653 16.566C81.8864 16.1367 82.003 15.6467 82.003 15.096C82.003 14.5453 81.8864 14.06 81.653 13.64C81.4197 13.2107 81.1024 12.8793 80.701 12.646C80.2997 12.4127 79.8517 12.296 79.357 12.296C78.8624 12.296 78.4143 12.4127 78.013 12.646C77.6117 12.8793 77.2943 13.2107 77.061 13.64C76.8277 14.06 76.711 14.5453 76.711 15.096C76.711 15.6467 76.8277 16.1367 77.061 16.566C77.2943 16.986 77.6117 17.3127 78.013 17.546C78.4143 17.7793 78.8624 17.896 79.357 17.896Z" fill="#1A1F21"/>
<path d="M94.5032 12.394H90.0652V19.996H87.3352V10.196H94.5172L94.5032 12.394Z" fill="#1A1F21"/>
<path d="M100.775 20.192C99.7394 20.192 98.806 19.9727 97.9754 19.534C97.154 19.0953 96.5054 18.4887 96.0294 17.714C95.5627 16.9393 95.3294 16.0667 95.3294 15.096C95.3294 14.1253 95.5627 13.2527 96.0294 12.478C96.5054 11.7033 97.154 11.0967 97.9754 10.658C98.806 10.2193 99.7394 10 100.775 10C101.811 10 102.74 10.2193 103.561 10.658C104.392 11.0967 105.041 11.7033 105.507 12.478C105.983 13.2527 106.221 14.1253 106.221 15.096C106.221 16.0667 105.983 16.9393 105.507 17.714C105.041 18.4887 104.392 19.0953 103.561 19.534C102.74 19.9727 101.811 20.192 100.775 20.192ZM100.775 17.896C101.27 17.896 101.718 17.7793 102.119 17.546C102.521 17.3127 102.838 16.986 103.071 16.566C103.305 16.1367 103.421 15.6467 103.421 15.096C103.421 14.5453 103.305 14.06 103.071 13.64C102.838 13.2107 102.521 12.8793 102.119 12.646C101.718 12.4127 101.27 12.296 100.775 12.296C100.281 12.296 99.8327 12.4127 99.4314 12.646C99.03 12.8793 98.7127 13.2107 98.4794 13.64C98.246 14.06 98.1294 14.5453 98.1294 15.096C98.1294 15.6467 98.246 16.1367 98.4794 16.566C98.7127 16.986 99.03 17.3127 99.4314 17.546C99.8327 17.7793 100.281 17.896 100.775 17.896Z" fill="#1A1F21"/>
</svg>
