<svg width="14" height="14" viewBox="0 0 14 14" fill="none" xmlns="http://www.w3.org/2000/svg">
<path fill-rule="evenodd" clip-rule="evenodd" d="M2.76317 0.303804C2.92103 0.290574 3.05634 0.328942 3.14389 0.473151C3.34022 0.790677 3.53788 1.1082 3.72492 1.43367C3.94115 1.80941 4.14013 2.19573 4.35238 2.57544C4.40677 2.67731 4.48238 2.76992 4.54606 2.86783C4.60443 2.96044 4.66014 3.0557 4.71453 3.14831C4.82596 3.35867 4.82066 3.57035 4.65484 3.73838C4.41871 3.97917 4.15871 4.20276 3.90799 4.43164C3.69839 4.62348 3.48084 4.80738 3.27655 5.00319C3.11736 5.15666 3.07624 5.3485 3.18369 5.55092C3.34951 5.86051 3.514 6.1701 3.69574 6.47307C4.36963 7.59367 5.23056 8.54625 6.31833 9.28053C6.73752 9.56498 7.17396 9.82562 7.61438 10.0743C8.02959 10.3085 8.19143 10.2688 8.51378 9.91029C8.81358 9.57821 9.10277 9.24084 9.40124 8.90611C9.47288 8.82541 9.5591 8.75397 9.64268 8.68517C9.81247 8.54228 9.99819 8.52641 10.1932 8.62431C10.2476 8.65077 10.306 8.67458 10.3537 8.70898C10.8711 9.07811 11.4494 9.33874 11.996 9.6523C12.2891 9.82032 12.5744 10.0003 12.8622 10.1722C13.0174 10.2635 13.0798 10.3972 13.0692 10.5811C13.04 11.0984 12.9538 11.6064 12.6526 12.043C12.5266 12.2243 12.3475 12.383 12.1671 12.5114C11.667 12.8606 11.1085 13.0763 10.5142 13.2086C9.97431 13.329 9.43573 13.2853 8.91838 13.1239C7.91948 12.817 6.93518 12.4651 6.02915 11.9319C5.20668 11.4463 4.45851 10.8602 3.76605 10.2053C2.88919 9.37314 2.10653 8.46555 1.47376 7.43226C1.0612 6.76149 0.766709 6.03912 0.500072 5.30219C0.338232 4.85766 0.179046 4.41709 0.107412 3.94609C0.0251657 3.41291 0.0822074 2.89958 0.253333 2.39418C0.407213 1.93774 0.599563 1.50114 0.890078 1.11085C1.11825 0.807877 1.40345 0.585609 1.77224 0.486382C2.06806 0.408323 2.36653 0.346141 2.66368 0.277344C2.70215 0.307773 2.73266 0.307773 2.76317 0.303804Z" fill="#FD4B0D"/>
</svg>
