<svg width="39" height="38" viewBox="0 0 39 38" fill="none" xmlns="http://www.w3.org/2000/svg">
<g clip-path="url(#clip0_4_8104)">
<path d="M9.50907 7.70503L24.6579 3.57005L23.8556 1.94849C23.3307 0.894473 22.0506 0.459212 20.9966 0.984086L7.43518 7.70503H9.50907Z" fill="white"/>
<path d="M29.3604 3.68945C29.1727 3.68945 28.9849 3.71506 28.7971 3.76626L25.2383 4.7392L14.3695 7.70494H26.7062H32.0829L31.4172 5.26407C31.1612 4.31247 30.2992 3.68945 29.3604 3.68945Z" fill="white"/>
<path d="M34.3062 9.19849H33.8197H33.1583H32.4968H27.4487H8.89887H6.46653H4.41824H4.03845H2.76681C2.09258 9.19849 1.49089 9.51 1.09831 10.0007C0.91908 10.2269 0.782528 10.4872 0.705717 10.7731C0.658777 10.9523 0.628906 11.1401 0.628906 11.3321V11.5882V14.0205V35.1051C0.628906 36.2829 1.58477 37.2387 2.76254 37.2387H34.3019C35.4797 37.2387 36.4355 36.2829 36.4355 35.1051V29.1522H23.7746C21.7732 29.1522 20.1474 27.5264 20.1474 25.525V23.5706V22.9092V22.2478V20.7798C20.1474 19.7984 20.5399 18.9066 21.1758 18.2537C21.7391 17.6733 22.4944 17.2807 23.3393 17.1825C23.4801 17.1655 23.6252 17.1569 23.7703 17.1569H34.6604H35.3218H35.9832H36.4355V11.3321C36.4398 10.1544 35.4839 9.19849 34.3062 9.19849Z" fill="white"/>
<path d="M37.9329 19.1968C37.7195 19.0005 37.4678 18.8511 37.1861 18.753C36.9685 18.6805 36.7381 18.6378 36.4948 18.6378H36.4394H36.3967H35.7353H33.3499H23.7741C22.5963 18.6378 21.6405 19.5936 21.6405 20.7715V21.834V22.4954V23.1568V25.5209C21.6405 26.6986 22.5963 27.6545 23.7741 27.6545H36.4394H36.4948C36.7381 27.6545 36.9685 27.6118 37.1861 27.5393C37.4678 27.4454 37.7195 27.2918 37.9329 27.0955C38.3596 26.7072 38.6285 26.1439 38.6285 25.5209V20.7715C38.6285 20.1484 38.3596 19.5851 37.9329 19.1968ZM28.2291 23.5707C28.2291 24.1596 27.7512 24.6375 27.1623 24.6375H26.454C25.8651 24.6375 25.3872 24.1596 25.3872 23.5707V22.8624C25.3872 22.521 25.545 22.218 25.7968 22.0259C25.9803 21.8851 26.2065 21.7956 26.454 21.7956H26.6332H27.1623C27.7512 21.7956 28.2291 22.2734 28.2291 22.8624V23.5707Z" fill="white"/>
</g>
<defs>
<clipPath id="clip0_4_8104">
<rect width="38" height="38" fill="white" transform="translate(0.628906)"/>
</clipPath>
</defs>
</svg>
