<svg width="50" height="33" viewBox="0 0 50 33" fill="none" xmlns="http://www.w3.org/2000/svg">
<path d="M46.5899 10.239C46.5569 10.201 46.5289 10.164 46.4899 10.127L44.7729 8.47C46.1969 8.147 47.7299 6.954 47.7299 5.73C47.7299 4.304 45.7509 3.798 44.0619 3.798C42.2959 3.798 42.0909 5.008 42.0699 5.863L37.6399 1.592C36.7399 0.701 35.0329 0 33.7569 0H25.1289H25.1269H16.4969C15.2219 0 13.5159 0.701 12.6149 1.592L8.18591 5.863C8.16291 5.008 7.95791 3.798 6.19391 3.798C4.50291 3.798 2.52491 4.304 2.52491 5.73C2.52491 6.954 4.05891 8.147 5.48291 8.47L3.76591 10.127C3.72691 10.164 3.69991 10.201 3.66591 10.239C1.82891 11.809 0.628906 14.721 0.628906 16.834V23.113C0.628906 24.637 1.22991 26.02 2.20091 27.051V29.486C2.20091 30.91 3.39291 32.071 4.85891 32.071H8.07291C9.53891 32.071 10.7299 30.912 10.7299 29.486V28.863H25.1269H25.1289H39.5249V29.486C39.5249 30.912 40.7149 32.071 42.1829 32.071H45.3959C46.8629 32.071 48.0529 30.91 48.0529 29.486V27.051C49.0249 26.02 49.6249 24.637 49.6249 23.113V16.834C49.6269 14.721 48.4269 11.809 46.5899 10.239ZM14.2419 3.49C14.8649 2.971 15.9539 2.577 16.4969 2.577H25.1269H25.1289H33.7589C34.3019 2.577 35.3909 2.971 36.0139 3.49L41.8229 9.12H25.1289H25.1269H8.43391L14.2419 3.49ZM2.62191 15.884C2.62191 14.338 3.83191 13.083 5.32591 13.083C6.81891 13.083 11.6979 15.947 11.6979 17.493C11.6979 19.039 6.81891 18.681 5.32591 18.681C3.83191 18.681 2.62191 17.431 2.62191 15.884ZM10.7309 26.11H10.2159H9.70091L6.64591 26.115C5.79791 25.851 5.19991 25.543 4.77691 25.212C4.56291 25.045 4.39891 24.871 4.27091 24.698C4.14191 24.523 4.04791 24.351 3.98691 24.179C3.60691 23.105 4.39191 22.118 4.39191 22.118H9.60591L13.0819 26.108L10.7309 26.11ZM32.6249 26.112H25.1289H25.1269H17.6309C16.0679 26.112 14.7989 24.843 14.7989 23.281H25.1269H25.1289H35.4569C35.4569 24.845 34.1879 26.112 32.6249 26.112ZM33.2829 21.349H25.1289H25.1269H16.9729C15.2729 21.349 13.8929 19.253 13.8929 16.668H25.1269H25.1289H36.3629C36.3629 19.254 34.9829 21.349 33.2829 21.349ZM46.2699 24.181C46.2079 24.353 46.1139 24.525 45.9849 24.699C45.8579 24.872 45.6939 25.046 45.4789 25.213C45.0569 25.544 44.4579 25.854 43.6099 26.116L40.5549 26.111H40.0399H39.5249H37.1719L40.6499 22.121H45.8629C45.8629 22.12 46.6489 23.105 46.2699 24.181ZM44.9299 18.681C43.4379 18.681 38.5589 19.037 38.5589 17.493C38.5589 15.949 43.4379 13.083 44.9299 13.083C46.4239 13.083 47.6339 14.338 47.6339 15.884C47.6339 17.429 46.4239 18.681 44.9299 18.681Z" fill="white"/>
</svg>
