<svg width="42" height="41" viewBox="0 0 42 41" fill="none" xmlns="http://www.w3.org/2000/svg">
<g clip-path="url(#clip0_4_8093)">
<path d="M12.5413 23.4126C13.6935 23.4126 14.8072 23.3381 15.8611 23.1996V11.648C14.8073 11.5096 13.6935 11.4352 12.5413 11.4352C5.9624 11.4352 0.62915 13.854 0.62915 16.838V18.0097C0.62915 20.9935 5.9624 23.4126 12.5413 23.4126Z" fill="white"/>
<path d="M12.5413 29.4443C13.6935 29.4443 14.8072 29.3698 15.8611 29.2315V25.8455C14.807 25.984 13.6938 26.0594 12.5413 26.0594C6.79863 26.0594 2.00555 24.2162 0.879683 21.7632C0.715724 22.1205 0.62915 22.4905 0.62915 22.8698V24.0415C0.62915 27.0254 5.9624 29.4443 12.5413 29.4443Z" fill="white"/>
<path d="M15.8608 32.1407V31.8775C14.8067 32.0159 13.6935 32.0914 12.541 32.0914C6.79839 32.0914 2.0053 30.2482 0.879438 27.7952C0.71548 28.1524 0.628906 28.5224 0.628906 28.9016V30.0733C0.628906 33.0574 5.96216 35.4762 12.541 35.4762C13.8567 35.4762 15.1221 35.3793 16.3054 35.2006C16.0121 34.6006 15.8608 33.9678 15.8608 33.3123V32.1407Z" fill="white"/>
<path d="M29.7166 2.28467C23.1377 2.28467 17.8044 4.70353 17.8044 7.68746V8.85917C17.8044 11.8431 23.1377 14.262 29.7166 14.262C36.2953 14.262 41.6287 11.8431 41.6287 8.85917V7.68746C41.6287 4.70353 36.2953 2.28467 29.7166 2.28467Z" fill="white"/>
<path d="M29.7166 16.909C23.9739 16.909 19.1808 15.066 18.055 12.6128C17.891 12.97 17.8044 13.34 17.8044 13.7194V14.8911C17.8044 17.875 23.1377 20.2939 29.7166 20.2939C36.2953 20.2939 41.6287 17.875 41.6287 14.8911V13.7194C41.6287 13.34 41.5421 12.97 41.3782 12.6128C40.2523 15.066 35.4592 16.909 29.7166 16.909Z" fill="white"/>
<path d="M29.7166 22.941C23.9739 22.941 19.1808 21.0978 18.055 18.6448C17.891 19.002 17.8044 19.372 17.8044 19.7513V20.9231C17.8044 23.9071 23.1377 26.326 29.7166 26.326C36.2953 26.326 41.6287 23.9071 41.6287 20.9231V19.7513C41.6287 19.372 41.5421 19.002 41.3782 18.6448C40.2523 21.0979 35.4592 22.941 29.7166 22.941Z" fill="white"/>
<path d="M29.7166 29.2985C23.9739 29.2985 19.1808 27.4554 18.055 25.0023C17.891 25.3596 17.8044 25.7295 17.8044 26.1088V27.2806C17.8044 30.2645 23.1377 32.6834 29.7166 32.6834C36.2953 32.6834 41.6287 30.2645 41.6287 27.2806V26.1088C41.6287 25.7295 41.5421 25.3594 41.3782 25.0023C40.2523 27.4553 35.4592 29.2985 29.7166 29.2985Z" fill="white"/>
<path d="M29.7166 35.3304C23.9739 35.3304 19.1808 33.4873 18.055 31.0343C17.891 31.3916 17.8044 31.7617 17.8044 32.1407V33.3125C17.8044 36.2964 23.1377 38.7152 29.7166 38.7152C36.2953 38.7152 41.6287 36.2964 41.6287 33.3125V32.1406C41.6287 31.7614 41.5421 31.3913 41.3782 31.0342C40.2523 33.4872 35.4592 35.3304 29.7166 35.3304Z" fill="white"/>
</g>
<defs>
<clipPath id="clip0_4_8093">
<rect width="41" height="41" fill="white" transform="translate(0.628906)"/>
</clipPath>
</defs>
</svg>
