<svg width="51" height="50" viewBox="0 0 51 50" fill="none" xmlns="http://www.w3.org/2000/svg">
<g clip-path="url(#clip0_4_8123)">
<path d="M36.5664 1.17188H28.7539C28.1067 1.17188 27.582 1.69654 27.582 2.34375V4.6875C27.582 5.33471 28.1067 5.85938 28.7539 5.85938H36.5664C37.2136 5.85938 37.7383 5.33471 37.7383 4.6875V2.34375C37.7383 1.69654 37.2136 1.17188 36.5664 1.17188Z" fill="white"/>
<path d="M13.9102 18.3594H6.09766C5.78686 18.3594 5.48878 18.4828 5.26902 18.7026C5.04925 18.9224 4.92578 19.2204 4.92578 19.5312C4.92578 19.8421 5.04925 20.1401 5.26902 20.3599C5.48878 20.5797 5.78686 20.7031 6.09766 20.7031H13.9102C14.221 20.7031 14.519 20.5797 14.7388 20.3599C14.9586 20.1401 15.082 19.8421 15.082 19.5312C15.082 19.2204 14.9586 18.9224 14.7388 18.7026C14.519 18.4828 14.221 18.3594 13.9102 18.3594Z" fill="white"/>
<path d="M13.5195 28.9062C13.5195 28.5954 13.3961 28.2974 13.1763 28.0776C12.9565 27.8578 12.6585 27.7344 12.3477 27.7344H4.53516C4.22436 27.7344 3.92628 27.8578 3.70652 28.0776C3.48675 28.2974 3.36328 28.5954 3.36328 28.9062C3.36328 29.2171 3.48675 29.5151 3.70652 29.7349C3.92628 29.9547 4.22436 30.0781 4.53516 30.0781H12.3477C12.6585 30.0781 12.9565 29.9547 13.1763 29.7349C13.3961 29.5151 13.5195 29.2171 13.5195 28.9062Z" fill="white"/>
<path d="M13.1289 32.4219H7.66016C7.34936 32.4219 7.05128 32.5453 6.83152 32.7651C6.61175 32.9849 6.48828 33.2829 6.48828 33.5938C6.48828 33.9046 6.61175 34.2026 6.83152 34.4224C7.05128 34.6422 7.34936 34.7656 7.66016 34.7656H13.1289C13.4397 34.7656 13.7378 34.6422 13.9575 34.4224C14.1773 34.2026 14.3008 33.9046 14.3008 33.5938C14.3008 33.2829 14.1773 32.9849 13.9575 32.7651C13.7378 32.5453 13.4397 32.4219 13.1289 32.4219Z" fill="white"/>
<path d="M13.5195 24.2188C13.5195 23.9079 13.3961 23.6099 13.1763 23.3901C12.9565 23.1703 12.6585 23.0469 12.3477 23.0469H2.19141C1.88061 23.0469 1.58253 23.1703 1.36277 23.3901C1.143 23.6099 1.01953 23.9079 1.01953 24.2188C1.01953 24.5296 1.143 24.8276 1.36277 25.0474C1.58253 25.2672 1.88061 25.3906 2.19141 25.3906H12.3477C12.6585 25.3906 12.9565 25.2672 13.1763 25.0474C13.3961 24.8276 13.5195 24.5296 13.5195 24.2188Z" fill="white"/>
<path d="M32.6602 26.5625V13.2812C25.3368 13.2812 19.3789 19.2392 19.3789 26.5625C19.3789 33.8858 25.3368 39.8438 32.6602 39.8438C39.9835 39.8438 45.9414 33.8858 45.9414 26.5625H32.6602Z" fill="white"/>
<path d="M45.5135 14.5853L46.77 13.3286C46.8803 13.2201 46.968 13.0909 47.0281 12.9483C47.0881 12.8058 47.1194 12.6527 47.12 12.498C47.1207 12.3433 47.0906 12.19 47.0317 12.047C46.9728 11.904 46.8862 11.774 46.7768 11.6646C46.6674 11.5552 46.5375 11.4686 46.3944 11.4097C46.2514 11.3508 46.0981 11.3208 45.9434 11.3214C45.7887 11.322 45.6357 11.3533 45.4931 11.4133C45.3505 11.4734 45.2213 11.5611 45.1128 11.6714L43.805 12.9791C41.2864 10.9043 38.238 9.57482 35.0039 9.14062V7.03125H30.3164V9.14062C27.0824 9.57465 24.034 10.904 21.5153 12.9785L20.2075 11.6708C20.099 11.5605 19.9698 11.4728 19.8272 11.4128C19.6847 11.3527 19.5316 11.3214 19.3769 11.3208C19.2222 11.3202 19.069 11.3502 18.9259 11.4091C18.7829 11.468 18.6529 11.5546 18.5435 11.664C18.4341 11.7734 18.3475 11.9034 18.2886 12.0464C18.2297 12.1895 18.1997 12.3427 18.2003 12.4974C18.2009 12.6521 18.2322 12.8052 18.2923 12.9477C18.3523 13.0903 18.44 13.2195 18.5503 13.328L19.8068 14.5847C16.768 17.8324 15.0788 22.1148 15.082 26.5625C15.082 36.2551 22.9676 44.1406 32.6602 44.1406C42.3527 44.1406 50.2383 36.2551 50.2383 26.5625C50.2414 22.115 48.5522 17.8329 45.5135 14.5853ZM32.6602 41.0156C29.8016 41.0156 27.0072 40.168 24.6304 38.5798C22.2536 36.9917 20.4011 34.7344 19.3072 32.0935C18.2133 29.4525 17.9271 26.5465 18.4847 23.7428C19.0424 20.9392 20.419 18.3639 22.4403 16.3426C24.4616 14.3213 27.0369 12.9448 29.8405 12.3871C32.6441 11.8294 35.5502 12.1156 38.1911 13.2096C40.8321 14.3035 43.0894 16.156 44.6775 18.5328C46.2656 20.9096 47.1133 23.7039 47.1133 26.5625C47.1133 28.4605 46.7394 30.3399 46.0131 32.0935C45.2868 33.847 44.2222 35.4403 42.8801 36.7824C41.538 38.1245 39.9447 39.1891 38.1911 39.9154C36.4376 40.6418 34.5582 41.0156 32.6602 41.0156Z" fill="white"/>
</g>
<defs>
<clipPath id="clip0_4_8123">
<rect width="50" height="50" fill="white" transform="translate(0.628906)"/>
</clipPath>
</defs>
</svg>
