<svg width="51" height="50" viewBox="0 0 51 50" fill="none" xmlns="http://www.w3.org/2000/svg">
<g clip-path="url(#clip0_4_8133)">
<path d="M25.6288 16.9534C21.1893 16.9534 17.5822 20.5605 17.5822 25C17.5822 29.4395 21.1893 33.0466 25.6288 33.0466C30.0683 33.0466 33.6754 29.4395 33.6754 25C33.6754 20.5605 30.0683 16.9534 25.6288 16.9534ZM25.0183 22.6138C24.0195 22.6138 23.187 23.4462 23.187 24.4451H20.5233C20.5788 21.9478 22.5766 19.95 25.0183 19.95V22.6138Z" fill="white"/>
<path d="M50.0462 23.3352C47.327 19.95 37.6156 8.90674 25.6289 8.90674C13.6422 8.90674 3.93079 19.95 1.21159 23.3352C0.434678 24.2785 0.434678 25.6659 1.21159 26.6648C3.93079 30.0499 13.6422 41.0932 25.6289 41.0932C37.6156 41.0932 47.327 30.0499 50.0462 26.6648C50.8231 25.7214 50.8231 24.334 50.0462 23.3352ZM25.6289 36.6537C19.1916 36.6537 13.9752 31.4373 13.9752 25C13.9752 18.5627 19.1916 13.3463 25.6289 13.3463C32.0662 13.3463 37.2826 18.5627 37.2826 25C37.2826 31.4373 32.0662 36.6537 25.6289 36.6537Z" fill="white"/>
</g>
<defs>
<clipPath id="clip0_4_8133">
<rect width="50" height="50" fill="white" transform="translate(0.628906)"/>
</clipPath>
</defs>
</svg>
