<svg width="45" height="44" viewBox="0 0 45 44" fill="none" xmlns="http://www.w3.org/2000/svg">
<g clip-path="url(#clip0_4_8111)">
<path d="M44.5535 6.63923C44.4843 6.15583 44.1482 5.75295 43.685 5.59818C43.2242 5.44212 42.7119 5.56415 42.3656 5.9091L40.5428 7.73321C39.5685 8.70757 37.8703 8.70757 36.8959 7.73321C35.8877 6.72499 35.8882 5.0951 36.8959 4.08757L38.7187 2.26475C39.0637 1.9198 39.1845 1.40873 39.0296 0.945439C38.8748 0.48215 38.472 0.146048 37.9886 0.0768683C35.5829 -0.263015 33.1483 0.545142 31.4274 2.26346C29.4813 4.21089 28.7134 7.07356 29.4246 9.73599L10.3654 28.7945L10.3641 28.7932C7.71169 28.0896 4.8327 28.8574 2.89283 30.7973C1.18328 32.5068 0.365067 34.9604 0.70495 37.3597C0.774216 37.8431 1.11032 38.2459 1.57352 38.4007C2.03303 38.5556 2.54659 38.4347 2.89283 38.0898L4.71565 36.2657C5.69001 35.2913 7.38822 35.2913 8.36258 36.2657C9.3708 37.2737 9.37029 38.9036 8.36258 39.9113L6.53976 41.7341C6.19481 42.0791 6.07398 42.5902 6.22884 43.0534C6.3837 43.5167 6.78649 43.8528 7.26989 43.922C9.66926 44.2634 12.0836 43.4812 13.831 41.7354C15.7772 39.788 16.5451 36.9253 15.8339 34.2629L34.8931 15.2044L34.8944 15.2057C37.5606 15.9119 40.4258 15.1415 42.3656 13.2016C44.0752 11.492 44.8934 9.0386 44.5535 6.63923Z" fill="white"/>
<path d="M36.8946 28.5312C36.2841 28.5312 35.6559 28.6231 34.9182 28.8183L29.922 23.8226L24.4518 29.2922L29.4472 34.288C29.2521 35.0269 29.1602 35.6551 29.1602 36.2656C29.1602 40.5306 32.6296 44 36.8946 44C41.1596 44 44.629 40.5306 44.629 36.2656C44.629 32.0006 41.1596 28.5312 36.8946 28.5312ZM41.1243 36.0075L40.3577 38.8676C40.2381 39.312 39.8906 39.6594 39.4463 39.779L36.5862 40.5456C36.1661 40.6615 35.6806 40.5515 35.3413 40.212L33.2478 38.1186C32.9218 37.7925 32.7947 37.318 32.9142 36.8736L33.6809 34.0135C33.8005 33.5691 34.1479 33.2217 34.5922 33.1022L37.4523 32.3355C37.8942 32.2121 38.37 32.3431 38.6973 32.6691L40.7907 34.7626C41.1168 35.0886 41.2439 35.5632 41.1243 36.0075Z" fill="white"/>
<path d="M15.8318 9.6629C16.5431 7.00047 15.7751 4.1366 13.829 2.19038C10.9072 -0.730125 5.81006 -0.730125 2.89085 2.19038C-0.124098 5.20661 -0.124098 10.1136 2.89085 13.1285C4.82822 15.0659 7.69716 15.8451 10.3634 15.1314L15.3374 20.1766L20.8067 14.7079L15.8318 9.6629ZM12.4606 7.27238L11.6939 10.1325C11.5743 10.5768 11.2269 10.9243 10.7826 11.0438L7.92249 11.8105C7.50234 11.9263 7.01688 11.8163 6.67751 11.4769L4.58407 9.38343C4.25803 9.05738 4.13093 8.58284 4.25046 8.13845L5.01711 5.27837C5.13674 4.83398 5.48418 4.48654 5.92848 4.367L8.78857 3.60035C9.23295 3.47952 9.7075 3.60791 10.0335 3.93396L12.127 6.0274C12.453 6.35345 12.5801 6.82799 12.4606 7.27238Z" fill="white"/>
</g>
<defs>
<clipPath id="clip0_4_8111">
<rect width="44" height="44" fill="white" transform="translate(0.628906)"/>
</clipPath>
</defs>
</svg>
