<svg width="49" height="48" viewBox="0 0 49 48" fill="none" xmlns="http://www.w3.org/2000/svg">
<g clip-path="url(#clip0_4_8275)">
<path d="M38.219 9.21814H35.401C34.6222 9.21814 33.9919 9.8352 33.9919 10.5978C33.9919 11.3604 34.6221 11.9775 35.401 11.9775H38.219C38.9978 11.9775 39.6281 11.3605 39.6281 10.5978C39.628 9.8352 38.9978 9.21814 38.219 9.21814Z" fill="white"/>
<path d="M23.9804 4.46215L22.5714 1.70283C22.2206 1.02106 21.377 0.747597 20.6807 1.08578C19.9844 1.42662 19.7024 2.25527 20.0505 2.93704L21.4596 5.69636C21.8072 6.37538 22.6493 6.65435 23.3503 6.31341C24.0464 5.97257 24.3285 5.14392 23.9804 4.46215Z" fill="white"/>
<path d="M33.2132 1.08576C32.5197 0.74758 31.6708 1.02113 31.3226 1.70282L29.9135 4.46213C29.5654 5.14391 29.8475 5.97247 30.5437 6.3134C31.2467 6.65525 32.0878 6.37307 32.4344 5.69634L33.8434 2.93702C34.1915 2.25525 33.9094 1.4266 33.2132 1.08576Z" fill="white"/>
<path d="M18.4927 9.21814H15.6747C14.8959 9.21814 14.2656 9.8352 14.2656 10.5978C14.2656 11.3604 14.8958 11.9775 15.6747 11.9775H18.4927C19.2715 11.9775 19.9018 11.3605 19.9018 10.5978C19.9018 9.8352 19.2715 9.21814 18.4927 9.21814Z" fill="white"/>
<path d="M10.0386 23.1068H4.40247C3.62434 23.1068 2.99341 23.7245 2.99341 24.4865V46.561C2.99341 47.323 3.62425 47.9408 4.40247 47.9408H10.0385C10.8166 47.9408 11.4476 47.3231 11.4476 46.561V24.4864C11.4476 23.7245 10.8168 23.1068 10.0386 23.1068Z" fill="white"/>
<path d="M45.2362 26.764C44.9877 24.6238 42.9459 23.1069 40.7461 23.1069H29.7609C30.6945 21.47 31.1956 16.8404 31.1734 14.9493C31.1365 11.8188 28.4889 9.31018 25.2918 9.31018H24.1291C23.3503 9.31018 22.72 9.92724 22.72 10.6899C22.72 13.8803 21.4513 19.6389 19.0585 21.9819C17.448 23.5589 16.0712 24.1303 14.2659 25.0138V45.7156C17.0299 46.6176 20.5393 47.9409 25.8884 47.9409H35.1055C38.1425 47.9409 40.5079 45.1867 39.331 42.2768C41.124 41.7985 42.4462 40.1884 42.4462 38.2832C42.4462 37.7456 42.3403 37.231 42.149 36.758C45.1705 35.952 46.2826 32.2989 44.1856 30.0052C44.956 29.1624 45.3809 28.0096 45.2362 26.764Z" fill="white"/>
</g>
<defs>
<clipPath id="clip0_4_8275">
<rect width="48" height="47" fill="white" transform="translate(0.128906 0.940918)"/>
</clipPath>
</defs>
</svg>
